<?xml version="1.0" encoding="UTF-8" standalone="no"?>
<!-- Created with sK1/UniConvertor (http://sk1project.org/) -->

<svg
   xmlns:dc="http://purl.org/dc/elements/1.1/"
   xmlns:cc="http://creativecommons.org/ns#"
   xmlns:rdf="http://www.w3.org/1999/02/22-rdf-syntax-ns#"
   xmlns:svg="http://www.w3.org/2000/svg"
   xmlns="http://www.w3.org/2000/svg"
   xmlns:sodipodi="http://sodipodi.sourceforge.net/DTD/sodipodi-0.dtd"
   xmlns:inkscape="http://www.inkscape.org/namespaces/inkscape"
   width="200"
   height="100"
   viewBox="0 0 160.00001 79.999996"
   id="svg2"
   version="1.1"
   inkscape:version="0.48.4 r9939"
   sodipodi:docname="logo.svg"
   style="fill-rule:evenodd">
  <metadata
     id="metadata38">
    <rdf:RDF>
      <cc:Work
         rdf:about="">
        <dc:format>image/svg+xml</dc:format>
        <dc:type
           rdf:resource="http://purl.org/dc/dcmitype/StillImage" />
        <dc:title></dc:title>
      </cc:Work>
    </rdf:RDF>
  </metadata>
  <sodipodi:namedview
     pagecolor="#ffffff"
     bordercolor="#666666"
     borderopacity="1"
     objecttolerance="10"
     gridtolerance="10"
     guidetolerance="10"
     inkscape:pageopacity="0"
     inkscape:pageshadow="2"
     inkscape:window-width="1920"
     inkscape:window-height="1056"
     id="namedview36"
     showgrid="false"
     inkscape:zoom="3.588117"
     inkscape:cx="82.753555"
     inkscape:cy="-0.78769272"
     inkscape:window-x="0"
     inkscape:window-y="24"
     inkscape:window-maximized="1"
     inkscape:current-layer="svg2" />
  <defs
     id="defs4">
    <marker
       id="ArrowEnd"
       viewBox="0 0 10 10"
       refX="0"
       refY="5"
       markerUnits="strokeWidth"
       markerWidth="4"
       markerHeight="3"
       orient="auto">
      <path
         d="M 0,0 10,5 0,10 z"
         id="path7"
         inkscape:connector-curvature="0" />
    </marker>
    <marker
       id="ArrowStart"
       viewBox="0 0 10 10"
       refX="10"
       refY="5"
       markerUnits="strokeWidth"
       markerWidth="4"
       markerHeight="3"
       orient="auto">
      <path
         d="M 10,0 0,5 10,10 z"
         id="path10"
         inkscape:connector-curvature="0" />
    </marker>
  </defs>
  <g
     id="g12"
     transform="matrix(0.62250437,0,0,0.63899931,-8.0264144,-460.35902)">
    <g
       id="g14">
      <g
         id="g16">
        <g
           id="g20">
          <path
             style="fill:#ffffff;stroke:none"
             d="m 246.368,775.441 c -4.79,2.857 -9.845,3.324 -15.301,2.731 -5.188,-0.749 -10.008,-2.363 -14.601,-4.886 l -0.932,-0.55 -0.569,-0.364 -4.834,10.2 0.018,-0.004 c 2.771,-0.571 5.583,-0.842 8.411,-0.816 3.335,0.093 6.545,0.599 9.75,1.523 l 2.583,0.796 0,15.671 0,2.095 0,0.16 6.849,0 0,-8.854 1.818,-1.044 c 2.383,-1.243 4.897,-1.813 7.578,-1.853 l 4.957,0 0,0.92 c 2.225,-0.596 4.45,-0.902 6.754,-0.92 2.476,0.02 4.849,0.377 7.228,1.056 l 2.373,0.734 0,19.126 -2.377,0.726 c -2.377,0.681 -4.751,1.032 -7.224,1.057 -2.473,-0.025 -4.848,-0.377 -7.226,-1.057 l -2.374,-0.728 -1.879,-10e-4 0,1.54 c -5.879,0 -11.758,0 -17.637,0 l 0,-1.598 -1.424,0.437 c -3.438,0.99 -6.876,1.492 -10.454,1.53 -3.578,-0.038 -7.017,-0.54 -10.455,-1.53 l -2.582,-0.794 -0.069,1.955 c -8.691,0 -17.383,0 -26.074,0 l 0,-1.954 -0.069,10e-4 -2.584,0.792 c -3.438,0.99 -6.876,1.492 -10.453,1.53 -3.578,-0.038 -7.017,-0.54 -10.455,-1.53 l -0.901,-0.277 0,1.438 -28.837,0 0,-1.822 -1.489,0.537 c -2.997,1.005 -6.046,1.54 -9.205,1.646 -3.648,0.043 -7.278,-0.5 -10.75,-1.633 l -2.512,-0.871 0,2.143 -11.7142,0 0,-1.972 -2.6506,0.811 c -3.439,0.99 -6.8775,1.492 -10.4558,1.53 -3.5774,-0.038 -7.0149,-0.54 -10.4529,-1.53 l -2.5841,-0.792 0,-10e-4 -2.6505,0.793 c -3.6299,1.045 -7.3863,1.562 -11.1625,1.522 -3.3324,-0.093 -6.5433,-0.6 -9.7463,-1.522 l -2.584,-0.792 -1.4952,0 0,1.953 -12.7275,0 0,-27.339 -8.1465,0 0,-12.129 28.8827,0 0,9.103 0.2073,-0.038 c 2.5563,-0.424 5.1409,-0.596 7.7299,-0.524 3.0914,0.147 6.0707,0.645 9.0441,1.504 l 2.6525,0.794 2.5786,-0.795 c 3.437,-0.991 6.877,-1.497 10.4544,-1.529 3.5773,0.032 7.0208,0.537 10.4578,1.53 l 2.6486,0.792 0,-12.586 11.7142,0 0,12.675 2.597,-0.851 c 3.373,-1.121 6.821,-1.589 10.371,-1.554 3.165,0.094 6.217,0.588 9.238,1.54 l 2.464,0.842 0,10.938 -2.345,0 0.238,0.26 c 0.756,0.988 1.282,1.922 1.734,3.082 0.407,1.396 0.557,2.676 0.557,4.127 l 10.597,-17.202 -0.116,0.002 -0.457,0.008 -0.46,0.006 -0.46,0.003 -0.458,0.002 -8.117,0 0,-12.129 27.18,0 0,8.516 -1.426,2.317 2.555,-0.788 c 2.743,-0.793 5.488,-1.275 8.336,-1.47 3.089,-0.147 6.093,0.053 9.133,0.619 l 0.406,0.084 -6.388,-14.112 0.025,-17.448 14.485,-13.263 20.312,-0.089 5.031,3.131 c -0.524,-1.846 -0.825,-3.446 -0.678,-5.367 0.169,-1.545 0.508,-3.043 1.129,-4.483 l 0.843,-1.7 2.488,-0.216 c 2.007,0.143 3.309,0.666 4.834,1.975 1.255,1.396 1.987,2.794 2.518,4.587 0.874,-0.707 1.805,-1.345 2.735,-1.977 l 3.082,-2.069 1.456,2.8 c 1.247,2.551 0.846,4.807 -0.182,7.373 -1.06,2.162 -2.427,3.819 -4.258,5.372 2.208,1.258 4.395,2.494 6.723,3.513 2.295,0.988 4.626,2.053 7.038,2.719 l 0.034,0.006 c 0.885,0.018 1.547,-0.115 2.142,-0.797 0.845,-1.232 1.142,-2.709 1.426,-4.153 l 1.108,-6.096 4.161,4.557 0.484,0.645 0.221,0.359 0.013,-0.376 c 0.055,-3.225 -0.14,-6.446 -0.376,-9.66 l -0.453,-6.902 5.816,5.383 c 2.341,2.447 3.97,5.09 5.303,8.195 2.295,6.075 2.756,12.138 1.133,18.445 -1.622,5.123 -4.399,9.445 -8.824,12.58 z m -46.666,7.192 -0.044,-7.576 c -1.115,-0.415 -2.247,-0.75 -3.402,-1.031 -1.595,-0.35 -3.164,-0.547 -4.797,-0.576 -1.379,0.021 -2.697,0.163 -4.047,0.443 -1.29,0.316 -2.522,0.723 -3.728,1.28 l 0.003,7.467 0.318,-0.072 c 2.54,-0.523 5.115,-0.799 7.707,-0.822 2.591,0.023 5.165,0.298 7.704,0.822 l 0.286,0.065 z"
             id="path22"
             inkscape:connector-curvature="0" />
          <path
             style="fill:#024182;fill-opacity:1;stroke:none"
             d="m 246.816,776.189 c -2.495,1.489 -5.063,2.356 -7.715,2.772 -2.63,0.413 -5.333,0.382 -8.126,0.079 l -0.031,-0.004 c -2.644,-0.382 -5.198,-0.985 -7.678,-1.815 -2.481,-0.83 -4.883,-1.886 -7.221,-3.169 l -0.023,-0.014 -0.688,-0.406 -3.684,7.773 c 0.327,-0.053 0.667,-0.104 1.016,-0.152 1.95,-0.266 3.921,-0.39 5.901,-0.372 l 0.017,0 c 1.702,0.047 3.375,0.201 5.033,0.46 1.653,0.259 3.293,0.625 4.932,1.097 l 0.018,0.004 2.582,0.795 0.615,0.189 0,0.645 0,15.671 0.004,0 0,1.384 5.099,0 0,-7.983 0,-0.505 0.441,-0.253 1.818,-1.044 0.031,-0.014 c 1.256,-0.655 2.549,-1.134 3.879,-1.453 1.324,-0.318 2.688,-0.479 4.091,-0.499 l 0.011,-0.004 4.957,0 0.874,0 0,0.681 c 0.779,-0.176 1.564,-0.319 2.357,-0.427 1.154,-0.157 2.325,-0.242 3.52,-0.25 l 0.01,0 c 1.288,0.01 2.542,0.107 3.77,0.288 1.24,0.182 2.466,0.449 3.69,0.799 l 0.018,0.007 2.372,0.733 0.619,0.191 0,0.643 0,19.126 0,0.644 -0.622,0.19 -2.377,0.726 -0.014,0.007 c -1.222,0.35 -2.449,0.616 -3.689,0.798 -1.227,0.18 -2.48,0.277 -3.767,0.289 l -0.014,0 c -1.288,-0.012 -2.54,-0.109 -3.768,-0.289 -1.24,-0.182 -2.467,-0.449 -3.69,-0.798 l -0.017,-0.007 -2.252,-0.691 -0.87,0 0,0.668 0,0.875 -0.875,0 -17.637,0 -0.874,0 0,-0.875 0,-0.418 -0.297,0.09 -0.014,0.007 c -1.753,0.505 -3.511,0.887 -5.287,1.146 -1.764,0.258 -3.559,0.396 -5.399,0.415 l -0.014,0 c -1.84,-0.019 -3.635,-0.157 -5.399,-0.415 -1.777,-0.259 -3.535,-0.641 -5.288,-1.146 l -0.017,-0.007 -1.495,-0.459 -0.028,0.815 -0.03,0.847 -0.842,0 -26.074,0 -0.875,0 0,-0.875 0,-0.794 -1.522,0.466 -0.017,0.007 c -1.753,0.505 -3.51,0.887 -5.287,1.146 -1.764,0.258 -3.558,0.396 -5.398,0.415 l -0.014,0 c -1.84,-0.019 -3.635,-0.157 -5.4,-0.415 -1.705,-0.249 -3.394,-0.61 -5.078,-1.085 l 0,0.26 0,0.875 -0.871,0 -28.837,0 -0.875,0 0,-0.875 0,-0.58 -0.32,0.115 -0.017,0.007 c -1.546,0.518 -3.101,0.915 -4.669,1.194 -1.56,0.277 -3.154,0.441 -4.785,0.496 l -0.021,0 -0.249,0.002 -0.003,0 c -0.529,0.002 -1.05,-0.006 -1.558,-0.027 -0.554,-0.022 -1.072,-0.054 -1.554,-0.095 -2.597,-0.222 -5.169,-0.74 -7.662,-1.554 l -0.014,-0.006 -1.354,-0.469 0,0.917 0,0.875 -0.875,0 -11.7142,0 -0.8713,0 0,-0.875 0,-0.795 -1.5264,0.467 -0.0138,0.007 c -1.7535,0.505 -3.5119,0.887 -5.2882,1.146 -1.7644,0.258 -3.5595,0.396 -5.3998,0.415 l -0.0139,0 c -1.8397,-0.019 -3.6339,-0.157 -5.3982,-0.415 -1.7763,-0.259 -3.5333,-0.641 -5.2867,-1.146 l -0.0174,-0.007 -2.3292,-0.714 -2.3996,0.718 -0.0139,0.003 -0.2722,0.078 -0.003,0 c -0.5534,0.154 -1.0726,0.29 -1.5541,0.404 -0.5019,0.119 -1.0265,0.232 -1.57,0.339 l 0,0 c -2.6248,0.513 -5.307,0.761 -8.0057,0.733 l -0.0168,0 c -1.7004,-0.048 -3.3741,-0.202 -5.0313,-0.461 -1.6707,-0.262 -3.3096,-0.627 -4.9302,-1.093 l -0.0173,-0.007 -2.4497,-0.75 -0.4984,0 0,1.078 0,0.875 -0.8748,0 -12.7275,0 -0.8713,0 0,-0.875 0,-26.464 -7.2752,0 -0.8747,0 0,-0.875 0,-12.129 0,-0.874 0.8747,0 28.8827,0 0.8747,0 0,0.874 0,8.08 0.3933,-0.057 c 0.3793,-0.05 0.7468,-0.096 1.0979,-0.134 1.8511,-0.199 3.7202,-0.272 5.5951,-0.219 l 0.0174,0 c 1.5824,0.075 3.135,0.24 4.6683,0.495 l 0,0.001 c 1.5328,0.255 3.0547,0.602 4.5771,1.042 l 0.0069,0 2.4016,0.719 2.3237,-0.716 0.0174,-0.004 c 1.7693,-0.51 3.5268,-0.894 5.2872,-1.151 1.7649,-0.259 3.56,-0.397 5.3992,-0.412 l 0.0139,0 c 1.8393,0.015 3.6354,0.153 5.4013,0.411 1.7668,0.258 3.5262,0.643 5.2921,1.153 l 0.0069,0 1.5244,0.456 0,-11.413 0,-0.874 0.8748,0 11.7142,0 0.875,0 0,0.874 0,11.47 1.452,-0.476 0.001,0.002 c 1.742,-0.579 3.496,-0.988 5.262,-1.247 1.763,-0.258 3.558,-0.368 5.385,-0.35 l 0.017,0 c 1.625,0.048 3.219,0.199 4.789,0.459 1.582,0.261 3.141,0.632 4.685,1.118 l 0.02,0.007 2.023,0.691 0,-9.925 0,-0.874 0.874,0 27.18,0 0.874,0 0,0.874 0,8.516 -0.13,0.458 -0.209,0.341 0.337,-0.104 0.014,-0.003 c 1.416,-0.409 2.82,-0.737 4.221,-0.983 1.411,-0.249 2.84,-0.422 4.3,-0.521 l 0.017,0 c 1.582,-0.075 3.14,-0.062 4.684,0.042 1.137,0.077 2.273,0.205 3.416,0.382 l -5.704,-12.603 -0.075,-0.359 0.025,-17.448 0,-0.383 0.283,-0.259 14.485,-13.263 0.584,-0.229 20.313,-0.089 0.464,0.129 3.223,2.006 c -0.041,-0.222 -0.077,-0.445 -0.108,-0.669 -0.131,-0.932 -0.172,-1.874 -0.094,-2.896 l 0.003,-0.027 c 0.088,-0.81 0.222,-1.611 0.415,-2.397 0.196,-0.797 0.451,-1.578 0.779,-2.339 l 0.02,-0.041 0.844,-1.7 0.219,-0.443 0.488,-0.042 2.488,-0.216 0.137,0 c 1.096,0.077 2.008,0.263 2.864,0.612 0.857,0.348 1.64,0.854 2.475,1.571 l 0.082,0.079 c 0.672,0.747 1.207,1.501 1.647,2.312 0.248,0.456 0.463,0.929 0.655,1.426 l 0.408,-0.294 c 0.422,-0.301 0.912,-0.636 1.405,-0.971 l 0.004,-0.003 3.082,-2.069 0.811,-0.544 0.45,0.865 1.455,2.8 0.007,0.021 c 0.697,1.423 0.933,2.768 0.852,4.114 -0.08,1.312 -0.46,2.603 -1.006,3.966 l -0.027,0.058 c -0.561,1.143 -1.203,2.153 -1.943,3.078 l -0.002,-10e-4 c -0.494,0.617 -1.031,1.198 -1.613,1.752 0.76,0.43 1.511,0.847 2.243,1.238 1.088,0.579 2.193,1.131 3.339,1.633 l 0,-0.001 0.01,0.005 0.004,0.003 0.845,0.366 c 1.958,0.849 3.948,1.714 5.981,2.284 0.306,0.002 0.572,-0.022 0.796,-0.096 l 0.001,0.002 c 0.187,-0.062 0.363,-0.173 0.537,-0.36 0.354,-0.526 0.6,-1.114 0.788,-1.726 l 0.001,0 c 0.194,-0.635 0.337,-1.356 0.477,-2.067 l 0.002,0 1.106,-6.083 0.315,-1.735 1.188,1.301 3.363,3.683 c -0.012,-0.9 -0.039,-1.803 -0.08,-2.707 -0.068,-1.56 -0.178,-3.175 -0.297,-4.802 l 0,-0.007 -0.452,-6.902 1.462,-0.693 5.816,5.383 0.038,0.034 c 1.207,1.262 2.235,2.581 3.135,3.988 0.896,1.401 1.66,2.88 2.342,4.471 l 0.014,0.034 c 1.178,3.117 1.885,6.236 2.09,9.388 0.205,3.149 -0.094,6.332 -0.93,9.58 l -0.01,0.048 c -0.835,2.638 -1.972,5.076 -3.474,7.263 -1.505,2.193 -3.378,4.132 -5.682,5.764 l -0.054,0.037 z m -7.982,1.051 c 2.432,-0.382 4.786,-1.177 7.076,-2.541 2.1,-1.496 3.816,-3.277 5.2,-5.294 1.399,-2.038 2.463,-4.324 3.249,-6.807 l 0.001,0.001 c 0.778,-3.044 1.056,-6.032 0.864,-8.993 -0.193,-2.968 -0.862,-5.913 -1.975,-8.865 -0.648,-1.507 -1.365,-2.899 -2.198,-4.201 -0.832,-1.302 -1.791,-2.53 -2.924,-3.714 l 0,0 -4.173,-3.863 0.31,4.715 0,0 c 0.116,1.586 0.224,3.191 0.297,4.85 0.071,1.618 0.107,3.246 0.079,4.885 l 0,0.017 -0.013,0.377 -1.613,0.427 -0.199,-0.325 -0.426,-0.567 -2.957,-3.239 -0.792,4.362 0,0.014 c -0.144,0.729 -0.291,1.47 -0.527,2.241 l 0,0.004 c -0.239,0.78 -0.559,1.537 -1.036,2.232 l -0.065,0.082 c -0.407,0.466 -0.848,0.749 -1.345,0.914 l 0,0.003 c -0.453,0.15 -0.933,0.188 -1.47,0.177 l -0.12,-0.01 -0.034,-0.006 -0.096,-0.02 c -2.161,-0.597 -4.244,-1.502 -6.294,-2.39 l -0.841,-0.364 -0.001,10e-4 -0.01,-0.004 -0.007,-0.004 c -1.18,-0.515 -2.331,-1.091 -3.469,-1.697 -1.157,-0.617 -2.246,-1.236 -3.337,-1.857 l -1.085,-0.617 0.952,-0.808 c 0.879,-0.746 1.642,-1.509 2.302,-2.334 l 0,-0.004 c 0.656,-0.819 1.222,-1.706 1.715,-2.706 0.48,-1.197 0.813,-2.314 0.878,-3.404 0.064,-1.055 -0.121,-2.108 -0.665,-3.228 l -0.002,0.001 -1.005,-1.934 -2.272,1.525 -0.001,-0.001 c -0.434,0.295 -0.875,0.596 -1.367,0.947 -0.448,0.32 -0.886,0.646 -1.302,0.983 l -1.017,0.824 -0.37,-1.255 c -0.248,-0.839 -0.542,-1.582 -0.916,-2.271 -0.364,-0.671 -0.814,-1.303 -1.38,-1.939 -0.67,-0.569 -1.289,-0.97 -1.949,-1.238 -0.661,-0.269 -1.385,-0.416 -2.265,-0.483 l -1.93,0.168 -0.604,1.218 c -0.292,0.678 -0.518,1.367 -0.689,2.064 -0.171,0.698 -0.292,1.413 -0.372,2.137 l 0.001,0 c -0.068,0.898 -0.032,1.719 0.081,2.527 0.115,0.822 0.314,1.649 0.567,2.54 l -1.302,0.977 -4.82,-3.001 -19.723,0.087 -13.953,12.776 -0.024,16.872 6.312,13.946 0.706,1.56 -1.676,-0.347 -0.39,-0.08 c -1.481,-0.276 -2.961,-0.463 -4.448,-0.563 -1.484,-0.1 -2.97,-0.114 -4.469,-0.043 l 0,0 c -1.387,0.094 -2.756,0.261 -4.115,0.5 -1.363,0.24 -2.701,0.551 -4.023,0.932 l 0,0 -2.554,0.789 -1.001,-1.292 1.295,-2.105 0,-7.395 -25.43,0 0,10.379 7.242,0 0,0.004 0.454,-0.002 0.454,-0.003 0.456,-0.006 0.451,-0.008 0.116,-0.003 1.605,-0.041 -0.844,1.37 -10.596,17.203 -1.617,-0.458 c 0,-0.704 -0.034,-1.352 -0.115,-1.972 -0.08,-0.618 -0.208,-1.23 -0.392,-1.868 -0.204,-0.522 -0.429,-1 -0.69,-1.465 -0.262,-0.466 -0.56,-0.912 -0.909,-1.368 l -0.19,-0.209 -1.337,-1.462 1.979,0 1.471,0 0,-9.439 -1.861,-0.636 c -1.472,-0.464 -2.949,-0.815 -4.435,-1.061 -1.501,-0.248 -3.017,-0.392 -4.556,-0.437 -1.715,-0.017 -3.416,0.089 -5.101,0.336 -1.686,0.246 -3.344,0.632 -4.973,1.174 l -0.003,0.002 -2.597,0.851 -1.145,0.375 0,-1.205 0,-11.8 -9.9645,0 0,11.711 0,1.174 -1.1242,-0.337 -2.6485,-0.792 5e-4,-0.002 c -1.6677,-0.481 -3.3478,-0.847 -5.0536,-1.096 -1.7059,-0.25 -3.4207,-0.382 -5.1553,-0.398 -1.7341,0.016 -3.4479,0.149 -5.1533,0.398 -1.7059,0.25 -3.3835,0.614 -5.0452,1.093 l 5e-4,0.001 -2.5786,0.794 -0.5059,0.004 -2.6525,-0.794 5e-4,-0.002 c -1.4475,-0.418 -2.8999,-0.749 -4.3693,-0.993 l -0.0029,0 c -1.4713,-0.245 -2.956,-0.403 -4.464,-0.475 l 0,0 c -1.7808,-0.049 -3.5665,0.022 -5.3458,0.213 -0.3649,0.039 -0.716,0.082 -1.0502,0.127 -0.3457,0.047 -0.6958,0.099 -1.0474,0.156 l -0.0972,0.016 -0.1983,0.037 -1.032,0.193 0,-1.051 0,-8.228 -27.1331,0 0,10.379 7.2717,0 0.8713,0 0,0.875 0,26.464 10.9815,0 0,-1.078 0,-0.875 0.8747,0 1.4952,0 0.2563,0.041 2.5663,0.787 5e-4,-0.002 c 1.5824,0.455 3.1513,0.807 4.7189,1.052 1.5814,0.247 3.1816,0.394 4.8121,0.44 2.5588,0.026 5.1181,-0.213 7.6397,-0.706 l 0.0034,0 c 0.4811,-0.093 0.9819,-0.203 1.4981,-0.325 0.5371,-0.127 1.0345,-0.255 1.4902,-0.382 l -5e-4,-10e-4 0.2583,-0.074 0,0 2.6506,-0.793 1.1242,-0.335 0,0.529 1.9478,0.597 5e-4,-0.002 c 1.6846,0.485 3.3666,0.851 5.0616,1.099 1.7034,0.249 3.4137,0.382 5.1453,0.4 l 0.0139,0 c 1.7327,-0.018 3.4435,-0.151 5.1469,-0.4 1.6954,-0.248 3.3785,-0.614 5.063,-1.099 l 5e-4,0.003 2.6362,-0.807 1.1242,-0.344 0,1.178 0,1.097 9.9679,0 0,-1.268 0,-1.224 1.159,0.401 2.498,0.866 0,-0.002 c 2.359,0.769 4.798,1.261 7.267,1.471 0.526,0.045 1.019,0.077 1.478,0.096 0.502,0.019 0.996,0.028 1.479,0.026 l 0.229,-0.002 c 1.526,-0.051 3.038,-0.208 4.54,-0.475 1.495,-0.265 2.965,-0.64 4.415,-1.126 l 0,0 1.472,-0.53 1.169,-0.422 0,1.242 0,0.947 27.09,0 0,-0.563 0,-1.18 1.128,0.347 0.883,0.271 0.001,-0.002 c 1.684,0.485 3.367,0.851 5.062,1.099 1.704,0.249 3.415,0.382 5.147,0.4 l 0.014,0 c 1.732,-0.018 3.442,-0.151 5.145,-0.4 1.695,-0.248 3.378,-0.614 5.062,-1.099 l 0,0.002 2.567,-0.787 0.253,-0.037 0.068,-10e-4 0.878,-0.006 0,0.877 0,1.079 24.359,0 0.039,-1.107 0.039,-1.14 1.088,0.334 2.565,0.788 0,-0.002 c 1.685,0.485 3.367,0.851 5.063,1.099 1.703,0.249 3.414,0.382 5.146,0.4 l 0.014,0 c 1.732,-0.018 3.442,-0.151 5.146,-0.4 1.695,-0.248 3.378,-0.614 5.062,-1.099 l 0,0.003 1.411,-0.432 1.127,-0.345 0,1.178 0,0.723 15.887,0 0,-0.665 0,-0.871 0.875,0 1.879,10e-4 0.256,0.037 2.357,0.723 0,-10e-4 c 1.154,0.329 2.306,0.581 3.465,0.75 1.167,0.171 2.335,0.264 3.515,0.276 l 0.014,0 c 1.179,-0.012 2.348,-0.105 3.514,-0.276 1.159,-0.169 2.311,-0.42 3.464,-0.75 l 0,0.002 1.741,-0.532 0,-17.84 -1.736,-0.537 -10e-4,0.002 c -1.154,-0.33 -2.307,-0.582 -3.465,-0.752 -1.169,-0.172 -2.342,-0.264 -3.525,-0.274 -1.106,0.009 -2.2,0.088 -3.29,0.237 -1.076,0.146 -2.153,0.366 -3.238,0.656 l -1.1,0.295 0,-1.139 0,-0.045 -4.082,0 0,-0.003 c -1.271,0.019 -2.504,0.164 -3.699,0.451 -1.181,0.284 -2.329,0.708 -3.446,1.287 l 0.001,0.002 -1.377,0.791 0,8.348 0,0.872 -0.875,0 -6.849,0 -0.875,0 0,-0.872 0,-0.16 0,-2.095 0.004,0 0,-15.027 -1.968,-0.606 0,-0.001 c -1.56,-0.449 -3.123,-0.798 -4.704,-1.045 -1.581,-0.247 -3.181,-0.394 -4.814,-0.439 -1.884,-0.017 -3.768,0.103 -5.638,0.358 -0.364,0.049 -0.742,0.107 -1.132,0.172 -0.345,0.058 -0.721,0.127 -1.13,0.207 l 0,-0.002 -0.293,0.058 0.001,0.002 -0.018,0.004 -1.754,0.401 0.77,-1.624 4.833,-10.2 0.424,-0.894 0.834,0.532 0.544,0.348 0.001,-0.002 0.913,0.539 c 2.254,1.237 4.558,2.251 6.929,3.044 2.375,0.794 4.826,1.373 7.369,1.741 2.65,0.285 5.196,0.316 7.645,-0.068 z m -7.645,0.068 0.001,0 m -186.9019,5.847 -0.0079,0.002 m 82.6848,3.078 0,8.837 0,0.875 -0.875,0 -0.623,0 c 0.089,0.144 0.176,0.288 0.259,0.435 0.299,0.53 0.56,1.09 0.805,1.718 l 0.023,0.072 c 0.163,0.557 0.286,1.1 0.378,1.64 l 8.366,-13.582 -0.378,10e-4 0,0.004 -7.955,0 z m 71.86,-4.67 -0.035,-5.891 c -0.347,-0.12 -0.702,-0.236 -1.068,-0.346 l -0.003,0 c -0.574,-0.173 -1.122,-0.32 -1.648,-0.448 l 0,0 c -0.773,-0.169 -1.538,-0.302 -2.302,-0.395 -0.779,-0.094 -1.547,-0.149 -2.311,-0.163 -0.648,0.01 -1.291,0.049 -1.941,0.12 -0.641,0.07 -1.281,0.171 -1.928,0.305 -0.599,0.148 -1.195,0.32 -1.792,0.523 -0.419,0.142 -0.833,0.3 -1.242,0.474 l 0.003,5.826 c 0.215,-0.039 0.444,-0.082 0.685,-0.122 0.367,-0.062 0.728,-0.119 1.081,-0.169 1.772,-0.253 3.569,-0.389 5.381,-0.404 l 0.017,0 0.331,0.004 0.004,0 c 0.384,0.006 0.749,0.018 1.097,0.033 0.397,0.017 0.764,0.038 1.094,0.062 1.53,0.108 3.057,0.307 4.577,0.591 z m 1.704,-6.512 0.045,7.577 0.006,1.096 -1.069,-0.242 -0.28,-0.064 c -1.681,-0.345 -3.386,-0.582 -5.106,-0.704 -0.382,-0.027 -0.729,-0.048 -1.047,-0.062 -0.366,-0.015 -0.719,-0.027 -1.049,-0.032 l -0.318,-0.005 c -1.713,0.016 -3.43,0.147 -5.141,0.39 -0.354,0.05 -0.702,0.105 -1.04,0.162 -0.31,0.053 -0.653,0.117 -1.033,0.191 l 0,-0.002 -0.3,0.06 0,10e-4 -0.318,0.072 -1.062,0.24 -0.001,-1.091 -0.004,-7.467 0,-0.559 0.506,-0.234 c 0.632,-0.292 1.271,-0.545 1.918,-0.765 0.634,-0.215 1.29,-0.403 1.971,-0.57 l 0.027,-0.006 c 0.703,-0.146 1.399,-0.256 2.098,-0.333 0.687,-0.074 1.389,-0.116 2.116,-0.127 l 0.024,0 c 0.864,0.015 1.694,0.073 2.502,0.17 0.827,0.101 1.647,0.242 2.466,0.422 l 0.021,0.007 c 0.622,0.152 1.213,0.31 1.764,0.476 l -0.001,10e-4 c 0.565,0.17 1.144,0.364 1.738,0.585 l 0.563,0.21 0.004,0.603 z"
             id="path24"
             inkscape:connector-curvature="0" />
          <g
             id="g26">
            <path
               style="fill:#024182;fill-opacity:1;stroke:none"
               d="m 169.35,752.151 12.824,-11.742 18.473,-0.081 8.906,5.543 c 1.022,-0.409 1.182,-0.818 1.182,-0.818 0,0 -2.044,-5.725 -2.249,-7.565 -0.204,-1.84 0.319,-4.4 1.023,-5.725 4.142,-0.678 5.782,4.015 5.782,6.952 0,1.431 0.147,3.067 0.147,3.067 2.109,-2.988 3.994,-4.367 6.952,-6.339 0,0 0.793,1.39 0.516,2.798 -0.888,4.493 -3.995,6.674 -7.468,9.061 0,0 7.361,4.294 9.202,5.112 1.84,0.818 7.856,3.449 9.339,3.57 4.951,0.402 5.964,-4.194 6.61,-7.864 2.001,1.962 2.74,6.107 1.635,9.815 4.372,-3.747 4.294,-7.822 4.294,-13.495 0,-1.636 -0.409,-6.952 -0.409,-6.952 7.967,6.905 11.371,24.465 0.394,34.416 -8.175,7.412 -24.469,2.676 -31.832,-3.074 -0.206,-0.832 -0.804,-0.588 -1.396,0.739 l -5.344,11.277 -5.512,0 -0.045,-7.637 c -7.393,-3.195 -14.567,-3.535 -21.419,0.296 l 0.004,7.341 -5.603,0.284 -6.028,-13.32 0.022,-15.659 z m 53.858,9.573 c 1.394,0 2.525,1.233 2.525,2.754 0,1.521 -1.131,2.754 -2.525,2.754 -1.394,0 -2.524,-1.233 -2.524,-2.754 0,-1.521 1.13,-2.754 2.524,-2.754 z"
               id="path28"
               inkscape:connector-curvature="0" />
            <path
               style="fill:#da241c;fill-opacity:1;stroke:none"
               d="m 41.2051,775.959 0,6.674 -8.0086,0 0,27.339 -7.2725,0 0,-27.339 -8.1467,0 0,-6.674 23.4278,0 z m 19.5616,32.77 c -3.3754,1.074 -6.8121,1.611 -10.3103,1.611 -3.4977,0 -6.9344,-0.537 -10.3097,-1.611 l 0,-22.644 c 3.3753,-1.075 6.812,-1.612 10.3097,-1.612 3.4982,0 6.9349,0.537 10.3103,1.612 l 0,22.644 z m -10.3103,-4.05 c 0.7061,0 1.4118,-0.023 2.1174,-0.069 0.7056,-0.046 1.3503,-0.115 1.9331,-0.207 l 0,-13.992 c -1.1661,-0.184 -2.5159,-0.276 -4.0505,-0.276 -0.7056,0 -1.4189,0.023 -2.1402,0.069 -0.7209,0.046 -1.3575,0.115 -1.9098,0.207 l 0,13.992 c 0.5828,0.092 1.2194,0.161 1.9098,0.207 0.6904,0.046 1.4041,0.069 2.1402,0.069 z m 36.4534,4.05 c -3.3753,1.074 -6.8121,1.611 -10.3103,1.611 -3.4976,0 -6.9344,-0.537 -10.3097,-1.611 l 0,-22.644 c 3.3753,-1.075 6.8121,-1.612 10.3097,-1.612 3.4982,0 6.935,0.537 10.3103,1.612 l 0,22.644 z m -10.3103,-4.05 c 0.7062,0 1.4118,-0.023 2.1174,-0.069 0.7056,-0.046 1.3504,-0.115 1.9331,-0.207 l 0,-13.992 c -1.166,-0.184 -2.5158,-0.276 -4.0505,-0.276 -0.7056,0 -1.4188,0.023 -2.1402,0.069 -0.7208,0.046 -1.3574,0.115 -1.9097,0.207 l 0,13.992 c 0.5827,0.092 1.2193,0.161 1.9097,0.207 0.6904,0.046 1.4042,0.069 2.1402,0.069 z m 22.0932,5.293 -6.2597,0 0,-35.762 6.2597,0 0,35.762 z m 18.4563,-17.628 0,-1.933 c -0.46,-0.092 -0.982,-0.161 -1.564,-0.207 -0.584,-0.046 -1.151,-0.069 -1.704,-0.069 -1.196,0 -2.301,0.092 -3.313,0.276 l 0,1.335 c 0,0.767 0.115,1.258 0.345,1.472 0.23,0.215 0.514,0.353 0.851,0.415 l 5.569,0.966 c 1.933,0.338 3.452,1.166 4.557,2.486 1.105,1.319 1.657,2.945 1.657,4.879 l 0,6.673 c -1.473,0.553 -3.03,0.975 -4.672,1.266 -1.641,0.291 -3.26,0.437 -4.856,0.437 -3.405,0 -6.674,-0.567 -9.803,-1.703 l 0,-6.996 6.213,0 0,2.762 c 0.491,0.092 1.036,0.161 1.635,0.207 0.598,0.046 1.188,0.069 1.771,0.069 1.259,0 2.425,-0.092 3.498,-0.276 l 0,-2.439 c 0,-0.43 -0.115,-0.821 -0.345,-1.174 -0.23,-0.353 -0.56,-0.56 -0.989,-0.622 l -5.57,-0.92 c -1.871,-0.307 -3.352,-1.105 -4.441,-2.393 -1.089,-1.289 -1.634,-2.992 -1.634,-5.109 l 0,-5.661 c 1.473,-0.553 3.015,-0.959 4.626,-1.22 1.61,-0.261 3.198,-0.392 4.763,-0.392 1.565,0 3.169,0.131 4.81,0.392 1.642,0.261 3.245,0.667 4.81,1.22 l 0,6.259 -6.214,0 z m 12.382,-16.385 21.724,0 0,5.017 -13.9,22.598 c 2.24,-0.183 4.495,-0.276 6.766,-0.276 l 7.364,0 0,6.674 -23.381,0 0,-5.201 13.807,-22.415 c -2.27,0.184 -4.602,0.277 -6.995,0.277 l -5.385,0 0,-6.674 z m 46.348,32.77 c -3.375,1.074 -6.812,1.611 -10.31,1.611 -3.498,0 -6.935,-0.537 -10.31,-1.611 l 0,-22.644 c 3.375,-1.075 6.812,-1.612 10.31,-1.612 3.498,0 6.935,0.537 10.31,1.612 l 0,22.644 z m -10.31,-4.05 c 0.706,0 1.411,-0.023 2.117,-0.069 0.706,-0.046 1.35,-0.115 1.933,-0.207 l 0,-13.992 c -1.166,-0.184 -2.516,-0.276 -4.05,-0.276 -0.706,0 -1.419,0.023 -2.141,0.069 -0.72,0.046 -1.357,0.115 -1.909,0.207 l 0,13.992 c 0.582,0.092 1.219,0.161 1.909,0.207 0.691,0.046 1.405,0.069 2.141,0.069 z m 26.143,-14.544 c -0.706,0 -1.419,0.023 -2.14,0.069 -0.721,0.046 -1.358,0.115 -1.91,0.207 l 0,19.561 -6.26,0 0,-23.887 c 3.375,-1.075 6.812,-1.612 10.31,-1.612 3.498,0 6.935,0.537 10.31,1.612 l 0,23.887 -6.26,0 0,-19.561 c -1.166,-0.184 -2.516,-0.276 -4.05,-0.276 z m 26.143,14.544 c 0.706,0 1.412,-0.023 2.117,-0.069 0.706,-0.046 1.351,-0.115 1.933,-0.207 l 0,-1.933 6.26,0 0,6.259 c -3.375,1.074 -6.812,1.611 -10.31,1.611 -3.498,0 -6.934,-0.537 -10.31,-1.611 l 0,-22.644 c 3.376,-1.075 6.812,-1.612 10.31,-1.612 3.498,0 6.935,0.537 10.31,1.612 l 0,13.025 -14.36,0 0,5.293 c 0.583,0.092 1.219,0.161 1.91,0.207 0.69,0.046 1.404,0.069 2.14,0.069 z m -4.05,-10.31 8.1,0 0,-3.958 c -1.166,-0.184 -2.515,-0.276 -4.05,-0.276 -0.706,0 -1.419,0.023 -2.14,0.069 -0.721,0.046 -1.358,0.115 -1.91,0.207 l 0,3.958 z m 23.289,15.603 -4.633,0 0,-5.247 4.633,0 0,5.247 z m 12.273,-13.225 -2.27,0 c -0.43,0 -0.854,0.031 -1.273,0.092 -0.42,0.062 -0.814,0.185 -1.182,0.368 l 0,12.765 -4.173,0 0,-15.25 c 1.064,-0.634 2.179,-1.084 3.345,-1.35 1.166,-0.266 2.281,-0.399 3.344,-0.399 l 2.209,0 0,3.774 z m 16.356,12.397 c -2.251,0.715 -4.542,1.074 -6.874,1.074 -2.332,0 -4.623,-0.359 -6.873,-1.074 l 0,-15.097 c 2.25,-0.716 4.541,-1.074 6.873,-1.074 2.332,0 4.623,0.358 6.874,1.074 l 0,15.097 z m -6.874,-2.701 c 0.471,0 0.941,-0.015 1.412,-0.046 0.47,-0.03 0.9,-0.076 1.288,-0.138 l 0,-9.328 c -0.777,-0.122 -1.677,-0.184 -2.7,-0.184 -0.47,0 -0.946,0.016 -1.427,0.046 -0.48,0.031 -0.905,0.077 -1.273,0.138 l 0,9.328 c 0.389,0.062 0.813,0.108 1.273,0.138 0.461,0.031 0.936,0.046 1.427,0.046 z"
               id="path30"
               inkscape:connector-curvature="0" />
          </g>
        </g>
      </g>
    </g>
    <g
       id="g32" />
  </g>
  <g
     id="g34"
     transform="translate(0,-761.89008)" />
  <text
     xml:space="preserve"
     style="font-size:14px;font-style:normal;font-variant:normal;font-weight:normal;font-stretch:normal;line-height:125%;letter-spacing:0px;word-spacing:0px;fill:#000000;fill-opacity:1;stroke:none;font-family:Segoe Print;-inkscape-font-specification:Segoe Print"
     x="18.672747"
     y="143.19815"
     id="text2996"
     sodipodi:linespacing="125%"
     transform="matrix(0.80000005,0,0,0.80000005,0,-4.5e-6)"><tspan
       sodipodi:role="line"
       id="tspan2998"
       x="18.672747"
       y="143.19815" /></text>
  <text
     xml:space="preserve"
     style="font-size:14px;font-style:normal;font-variant:normal;font-weight:normal;font-stretch:normal;line-height:125%;letter-spacing:0px;word-spacing:0px;fill:#000000;fill-opacity:1;stroke:none;font-family:Segoe Print;-inkscape-font-specification:Segoe Print"
     x="2.2295816"
     y="87.179909"
     id="text3000"
     sodipodi:linespacing="125%"
     transform="matrix(0.80000005,0,0,0.80000005,0,-4.5e-6)"><tspan
       sodipodi:role="line"
       id="tspan3002"
       x="2.2295816"
       y="87.179909" /></text>
  <g
     transform="matrix(1.0740184,0,0,0.93108275,0,4.8000003)"
     style="font-size:8.60624123px;font-style:normal;font-variant:normal;font-weight:normal;font-stretch:normal;line-height:125%;letter-spacing:0px;word-spacing:0px;fill:#000000;fill-opacity:1;stroke:none;font-family:Segoe Print;-inkscape-font-specification:Segoe Print"
     id="text3006">
    <path
       d="m 5.3841045,68.742894 c 0.1092539,10e-7 0.1638833,0.06724 0.1638884,0.201709 -5.1e-6,0.140076 -0.1554888,0.340384 -0.4664515,0.600924 -0.3109721,0.26054 -0.6709659,0.467852 -1.0799825,0.621935 -0.4062222,0.154083 -0.7788228,0.231124 -1.1178028,0.231125 -0.4958693,-1e-6 -0.9483129,-0.163889 -1.357332,-0.491666 -0.4062197,-0.327776 -0.60932906,-0.802631 -0.60932857,-1.424568 -4.9e-7,-1.134609 0.48746187,-2.238403 1.46238867,-3.311386 0.9777243,-1.075774 1.919031,-1.613663 2.8239229,-1.61367 0.3389777,7e-6 0.6093232,0.105063 0.8110374,0.31517 0.2045045,0.207318 0.3067595,0.449648 0.3067654,0.726992 -5.9e-6,0.257744 -0.015414,0.460854 -0.046225,0.609329 -0.028021,0.148485 -0.1162685,0.274552 -0.2647428,0.378204 -0.1484855,0.100859 -0.2675496,0.151286 -0.3571926,0.151281 -0.06444,5e-6 -0.1204701,-0.02801 -0.1680907,-0.08405 -0.047631,-0.05603 -0.071443,-0.131666 -0.071438,-0.226922 -5e-6,-0.06443 0.023808,-0.198903 0.071438,-0.403418 0.047621,-0.201703 0.071433,-0.351584 0.071439,-0.449642 -5.1e-6,-0.285749 -0.1246722,-0.428626 -0.3740017,-0.428631 -0.3866128,5e-6 -0.8656707,0.222725 -1.437175,0.66816 -0.5687094,0.442643 -1.0519696,1.005746 -1.4497819,1.689311 -0.397816,0.68077 -0.596723,1.308308 -0.5967218,1.882615 -1.2e-6,0.383808 0.1134599,0.70318 0.3403836,0.958117 0.2297221,0.252136 0.5560977,0.378204 0.979128,0.378204 0.2437287,0 0.5392877,-0.06023 0.8866782,-0.180698 0.350185,-0.123266 0.6709577,-0.287154 0.962319,-0.491665 0.2913524,-0.204509 0.4636451,-0.306764 0.5168787,-0.306765"
       id="path3810"
       inkscape:connector-curvature="0" />
    <path
       d="m 8.0693526,70.222091 c -0.3838084,0 -0.7003788,-0.145678 -0.9497122,-0.437035 -0.249335,-0.291357 -0.3740021,-0.651351 -0.3740017,-1.079983 -4e-7,-0.722787 0.24233,-1.43437 0.7269921,-2.134751 0.4874612,-0.703175 1.0701749,-1.054764 1.7481427,-1.054769 0.4482384,5e-6 0.8110335,0.172298 1.0883865,0.516879 0.280147,0.34459 0.420223,0.75501 0.420227,1.231264 -4e-6,0.728395 -0.28856,1.403558 -0.8656667,2.025492 -0.5743128,0.621936 -1.1724347,0.932903 -1.7943677,0.932903 m -0.584115,-1.626277 c -1.2e-6,0.282954 0.058831,0.514079 0.1764952,0.693374 0.1204634,0.179298 0.2787486,0.268946 0.4748561,0.268945 0.4174228,10e-7 0.8362482,-0.228322 1.2564776,-0.684969 0.420223,-0.459446 0.6303365,-0.969321 0.6303395,-1.529625 -3e-6,-0.344583 -0.081247,-0.623333 -0.2437311,-0.836251 -0.1596894,-0.215712 -0.3754055,-0.323571 -0.647149,-0.323574 -0.4510456,3e-6 -0.8390545,0.277353 -1.1640277,0.832048 -0.3221751,0.5519 -0.4832618,1.078584 -0.4832606,1.580052"
       id="path3812"
       inkscape:connector-curvature="0" />
    <path
       d="m 14.889631,66.687986 c -0.260544,0.0056 -0.818044,0.777421 -1.672502,2.315448 -0.288557,0.51828 -0.456647,0.801233 -0.504272,0.848858 -0.04763,0.04482 -0.135874,0.08545 -0.264742,0.121866 -0.126069,0.03642 -0.231126,0.05463 -0.31517,0.05463 -0.187702,0 -0.281553,-0.365597 -0.281552,-1.096791 -10e-7,-0.411821 0.08825,-1.157022 0.264743,-2.235606 0.07284,-0.437032 0.109258,-0.7494 0.109259,-0.937105 -1e-6,-0.184896 0.08264,-0.277345 0.247933,-0.27735 0.310966,5e-6 0.46645,0.224125 0.466452,0.672363 -2e-6,0.210117 -0.05183,0.621938 -0.155484,1.235466 -0.120466,0.70038 -0.1821,1.126209 -0.1849,1.277489 0.173692,-0.168089 0.42863,-0.536487 0.764813,-1.105196 0.476254,-0.778817 0.826442,-1.271882 1.050566,-1.479198 0.226919,-0.210109 0.460845,-0.315165 0.701779,-0.31517 0.182094,5e-6 0.326371,0.12187 0.432833,0.365597 0.109255,0.243736 0.17509,0.825048 0.197507,1.743941 0.0056,0.229726 0.02661,0.400618 0.06303,0.512676 0.03641,0.112062 0.06303,0.168092 0.07984,0.168091 0.131666,10e-7 0.41742,-0.44824 0.857262,-1.344725 0.235321,-0.473452 0.463644,-0.833446 0.684969,-1.079983 0.224115,-0.246528 0.472048,-0.369795 0.743802,-0.369799 0.226915,4e-6 0.392204,0.117668 0.495867,0.35299 0.103648,0.232529 0.177888,0.578516 0.22272,1.03796 0.04202,0.465053 0.10645,0.890883 0.193304,1.277489 0.08964,0.38661 0.252128,0.634543 0.487463,0.743801 0.159678,0.07564 0.239521,0.163889 0.239529,0.264743 -8e-6,0.09805 -0.06724,0.198908 -0.201708,0.302563 -0.134481,0.103656 -0.257748,0.155484 -0.3698,0.155484 -0.224129,0 -0.424436,-0.137274 -0.600924,-0.411822 -0.176502,-0.274547 -0.309574,-0.868467 -0.399215,-1.781761 -0.03923,-0.366995 -0.07705,-0.627535 -0.113461,-0.781622 -0.03643,-0.154079 -0.09386,-0.231121 -0.172293,-0.231124 -0.11767,3e-6 -0.257746,0.112063 -0.420227,0.336181 -0.159692,0.224124 -0.418832,0.679369 -0.777419,1.365737 -0.280157,0.535089 -0.493071,0.892282 -0.638745,1.071578 -0.142882,0.176495 -0.281556,0.264743 -0.416024,0.264742 -0.120469,10e-7 -0.228327,-0.04762 -0.323574,-0.142877 -0.09526,-0.09805 -0.155488,-0.214315 -0.180698,-0.348788 -0.02522,-0.137273 -0.05183,-0.472053 -0.07984,-1.004341 -0.04203,-0.885275 -0.119068,-1.400753 -0.231125,-1.546434"
       id="path3814"
       inkscape:connector-curvature="0" />
    <path
       d="m 21.369526,69.524515 c -0.137276,0.504272 -0.266145,1.211653 -0.386609,2.122145 l -0.117663,0.794228 c -0.01961,0.112058 -0.07144,0.222717 -0.155484,0.331979 -0.08405,0.112058 -0.161087,0.168088 -0.231125,0.168091 -0.08685,-3e-6 -0.1863,-0.04483 -0.298361,-0.134473 -0.109259,-0.08685 -0.163888,-0.156887 -0.163888,-0.210113 0,-0.154086 0.03502,-0.367 0.105057,-0.638745 0.512676,-2.070316 0.769013,-3.888495 0.769014,-5.454541 l -0.0042,-0.352991 c -0.0056,-0.302559 0.04763,-0.522477 0.159686,-0.659755 0.11206,-0.13727 0.240929,-0.205907 0.386609,-0.205911 0.06723,4e-6 0.131669,0.05323 0.193304,0.159686 0.06163,0.10366 0.09245,0.25214 0.09245,0.44544 -2e-6,0.27175 -0.02802,0.600928 -0.08404,0.987533 -0.07284,0.487465 -0.110662,0.767616 -0.113462,0.840453 0.417423,-0.72839 0.860062,-1.297096 1.327916,-1.70612 0.467849,-0.409016 0.902083,-0.613527 1.302703,-0.613531 0.282948,4e-6 0.521076,0.106462 0.714385,0.319372 0.196101,0.210117 0.294154,0.472058 0.294159,0.785824 -5e-6,0.913295 -0.350194,1.742541 -1.050567,2.487741 -0.700381,0.745203 -1.382548,1.117803 -2.046503,1.117803 -0.165291,0 -0.296962,-0.04202 -0.395013,-0.126068 -0.09525,-0.08405 -0.194707,-0.236727 -0.298361,-0.458047 m 2.609607,-3.382824 c -0.395017,4e-6 -0.88388,0.369803 -1.466591,1.109398 -0.582716,0.739601 -0.874073,1.315311 -0.874071,1.727132 -2e-6,0.100855 0.05743,0.198908 0.172293,0.294158 0.11486,0.09525 0.260538,0.142878 0.437035,0.142877 0.400614,10e-7 0.861462,-0.295558 1.382546,-0.886678 0.521077,-0.593918 0.781617,-1.176632 0.781621,-1.748143 -4e-6,-0.204506 -0.04203,-0.361391 -0.126068,-0.470653 -0.08125,-0.112057 -0.183503,-0.168087 -0.306765,-0.168091"
       id="path3816"
       inkscape:connector-curvature="0" />
    <path
       d="m 28.954615,68.482353 c -0.392215,0.526685 -0.780224,0.921698 -1.164028,1.185039 -0.383809,0.263342 -0.735398,0.395013 -1.054769,0.395013 -0.215717,0 -0.402017,-0.09105 -0.558901,-0.273147 -0.156885,-0.182098 -0.235328,-0.416024 -0.235327,-0.701778 -1e-6,-0.736796 0.329177,-1.529623 0.987532,-2.378483 0.658353,-0.851655 1.312506,-1.277484 1.962459,-1.277489 0.235323,5e-6 0.410417,0.134477 0.525283,0.403418 0.03642,0.08965 0.09385,0.134476 0.172293,0.134472 0.224117,4e-6 0.336177,0.08685 0.336181,0.260541 -4e-6,0.08685 -0.01401,0.205914 -0.04202,0.357192 -0.151286,0.826448 -0.226927,1.409162 -0.226923,1.748143 -4e-6,0.677967 0.128865,1.084185 0.386609,1.218657 0.123262,0.06724 0.184895,0.149881 0.184899,0.247934 -4e-6,0.08685 -0.06024,0.173694 -0.180697,0.26054 -0.120469,0.08965 -0.236732,0.134473 -0.348788,0.134473 -0.21572,0 -0.393616,-0.14848 -0.533688,-0.44544 -0.140079,-0.29696 -0.210117,-0.719988 -0.210113,-1.269085 m -0.256339,-2.365876 c -0.369802,4e-6 -0.799833,0.347391 -1.290095,1.042162 -0.490266,0.691976 -0.735398,1.266285 -0.735397,1.72293 -10e-7,0.322174 0.106456,0.483261 0.319372,0.48326 0.308165,10e-7 0.735395,-0.310967 1.281692,-0.932903 0.546291,-0.621933 0.819438,-1.193441 0.819441,-1.714525 -3e-6,-0.400612 -0.131674,-0.60092 -0.395013,-0.600924"
       id="path3818"
       inkscape:connector-curvature="0" />
    <path
       d="m 32.030673,68.343678 c 0.02801,-0.05042 0.06163,-0.120463 0.100855,-0.210113 0.190501,-0.437033 0.365595,-0.778817 0.525283,-1.025353 0.159684,-0.249331 0.334778,-0.487459 0.525283,-0.714385 0.193302,-0.226919 0.368396,-0.399211 0.525284,-0.516879 0.159682,-0.117659 0.30396,-0.198903 0.432833,-0.243731 0.128866,-0.04762 0.253533,-0.07143 0.374002,-0.07144 0.243727,5e-6 0.442634,0.07424 0.596722,0.22272 0.154078,0.145683 0.231119,0.316575 0.231124,0.512677 -5e-6,0.08685 -0.02802,0.165292 -0.08404,0.235327 -0.05323,0.07004 -0.135878,0.10506 -0.247934,0.105056 -0.117668,4e-6 -0.225526,-0.05182 -0.323574,-0.155483 -0.100859,-0.103653 -0.205915,-0.155481 -0.31517,-0.155484 -0.291361,3e-6 -0.694778,0.352993 -1.210253,1.058971 -0.51548,0.705982 -0.829249,1.483401 -0.941308,2.332258 -0.02802,0.218517 -0.08124,0.362795 -0.159686,0.432833 -0.07844,0.07004 -0.189103,0.105056 -0.331979,0.105057 -0.137275,-10e-7 -0.236728,-0.102256 -0.298361,-0.306766 -0.06163,-0.20451 -0.09245,-0.549095 -0.09245,-1.033757 0,-0.13167 0.007,-0.421626 0.02101,-0.869869 0.01681,-0.529483 0.05043,-0.956713 0.100854,-1.281692 0.0084,-0.05322 0.02241,-0.177892 0.04202,-0.374001 0.01961,-0.215713 0.04342,-0.365594 0.07144,-0.449643 0.03082,-0.08404 0.09105,-0.162483 0.180698,-0.235327 0.09245,-0.07283 0.191902,-0.109254 0.298361,-0.109259 0.103654,5e-6 0.180696,0.03362 0.231124,0.100855 0.05323,0.06444 0.07984,0.134476 0.07984,0.210113 -10e-7,0.109263 -0.02802,0.263346 -0.08404,0.462249 -0.06444,0.221323 -0.102257,0.374005 -0.113461,0.458047 -0.0084,0.09525 -0.02381,0.194708 -0.04622,0.298361 -0.02802,0.120468 -0.05603,0.437038 -0.08405,0.949712 l -0.0042,0.155484 0,0.113461"
       id="path3820"
       inkscape:connector-curvature="0" />
    <path
       d="m 38.401312,68.482353 c -0.392215,0.526685 -0.780223,0.921698 -1.164028,1.185039 -0.383809,0.263342 -0.735398,0.395013 -1.054769,0.395013 -0.215717,0 -0.402017,-0.09105 -0.558901,-0.273147 -0.156885,-0.182098 -0.235327,-0.416024 -0.235327,-0.701778 0,-0.736796 0.329177,-1.529623 0.987533,-2.378483 0.658353,-0.851655 1.312505,-1.277484 1.962458,-1.277489 0.235323,5e-6 0.410418,0.134477 0.525283,0.403418 0.03642,0.08965 0.09385,0.134476 0.172293,0.134472 0.224117,4e-6 0.336177,0.08685 0.336181,0.260541 -4e-6,0.08685 -0.01401,0.205914 -0.04202,0.357192 -0.151286,0.826448 -0.226927,1.409162 -0.226923,1.748143 -4e-6,0.677967 0.128866,1.084185 0.386609,1.218657 0.123262,0.06724 0.184895,0.149881 0.1849,0.247934 -5e-6,0.08685 -0.06024,0.173694 -0.180698,0.26054 -0.120469,0.08965 -0.236732,0.134473 -0.348788,0.134473 -0.21572,0 -0.393616,-0.14848 -0.533688,-0.44544 -0.140079,-0.29696 -0.210116,-0.719988 -0.210113,-1.269085 m -0.256338,-2.365876 c -0.369803,4e-6 -0.799834,0.347391 -1.290096,1.042162 -0.490266,0.691976 -0.735398,1.266285 -0.735397,1.72293 -1e-6,0.322174 0.106457,0.483261 0.319373,0.48326 0.308164,10e-7 0.735394,-0.310967 1.281691,-0.932903 0.546291,-0.621933 0.819438,-1.193441 0.819442,-1.714525 -4e-6,-0.400612 -0.131675,-0.60092 -0.395013,-0.600924 m 1.122005,-1.554838 c -0.08405,0.07565 -0.245136,0.159691 -0.483261,0.252136 -0.23533,0.09245 -0.444043,0.13868 -0.626138,0.138675 -0.145681,5e-6 -0.358596,-0.08964 -0.638744,-0.268945 -0.277352,-0.182093 -0.473457,-0.389405 -0.588317,-0.621936 -0.114864,-0.235321 -0.172295,-0.375396 -0.172293,-0.420226 -2e-6,-0.07563 0.03222,-0.158279 0.09665,-0.247934 0.06723,-0.08964 0.13307,-0.134466 0.197506,-0.134473 0.05043,7e-6 0.09525,0.04483 0.134473,0.134473 0.112058,0.26615 0.257737,0.495873 0.437036,0.689172 0.182095,0.190508 0.383804,0.285759 0.605126,0.285754 0.453841,5e-6 0.820839,-0.207306 1.100994,-0.621936 0.01961,-0.03361 0.07424,-0.09945 0.163888,-0.197506 0.09244,-0.09805 0.152678,-0.147073 0.180698,-0.14708 0.04202,7e-6 0.08684,0.04483 0.134472,0.134473 0.05042,0.08966 0.07564,0.159692 0.07564,0.210113 -5e-6,0.08685 -0.07004,0.221326 -0.210113,0.403418 -0.137279,0.179302 -0.273152,0.316576 -0.40762,0.411822"
       id="path3822"
       inkscape:connector-curvature="0" />
    <path
       d="m 40.708352,70.810409 c 0.52108,-0.12887 0.85586,-0.312369 1.004342,-0.550497 0.148478,-0.235327 0.222718,-0.403418 0.22272,-0.504272 -2e-6,-0.285754 -0.03922,-0.487462 -0.117664,-0.605126 -0.03642,-0.05323 -0.05463,-0.105056 -0.05463,-0.155484 -2e-6,-0.04202 0.01821,-0.102254 0.05463,-0.180698 0.03922,-0.07844 0.07844,-0.117662 0.117664,-0.117663 0.05883,10e-7 0.151279,0.02241 0.277349,0.06724 0.126066,0.04202 0.200306,0.07984 0.22272,0.113461 0.02241,0.03082 0.05883,0.134474 0.109259,0.310968 0.05323,0.176496 0.07984,0.327777 0.07984,0.453845 -2e-6,0.04763 -0.05323,0.194705 -0.159686,0.441238 -0.103658,0.249334 -0.246535,0.442638 -0.428631,0.579912 -0.1821,0.140075 -0.352992,0.225521 -0.512676,0.256339 -0.06444,0.01121 -0.124669,0.02661 -0.180698,0.04622 -0.22132,0.09805 -0.402017,0.147078 -0.542092,0.147079 -0.08124,-10e-7 -0.121866,-0.06584 -0.121866,-0.197507 0,-0.05043 0.0098,-0.08545 0.02942,-0.105056"
       id="path3824"
       inkscape:connector-curvature="0" />
    <path
       d="m 51.407325,68.742894 c 0.109253,10e-7 0.163883,0.06724 0.163888,0.201709 -5e-6,0.140076 -0.155489,0.340384 -0.466452,0.600924 -0.310972,0.26054 -0.670965,0.467852 -1.079982,0.621935 -0.406222,0.154083 -0.778823,0.231124 -1.117803,0.231125 -0.495869,-1e-6 -0.948313,-0.163889 -1.357332,-0.491666 -0.40622,-0.327776 -0.609329,-0.802631 -0.609328,-1.424568 -1e-6,-1.134609 0.487461,-2.238403 1.462388,-3.311386 0.977725,-1.075774 1.919031,-1.613663 2.823923,-1.61367 0.338978,7e-6 0.609323,0.105063 0.811038,0.31517 0.204504,0.207318 0.306759,0.449648 0.306765,0.726992 -6e-6,0.257744 -0.01541,0.460854 -0.04622,0.609329 -0.02802,0.148485 -0.116268,0.274552 -0.264743,0.378204 -0.148485,0.100859 -0.267549,0.151286 -0.357192,0.151281 -0.06444,5e-6 -0.12047,-0.02801 -0.168091,-0.08405 -0.04763,-0.05603 -0.07144,-0.131666 -0.07144,-0.226922 -5e-6,-0.06443 0.02381,-0.198903 0.07144,-0.403418 0.04762,-0.201703 0.07143,-0.351584 0.07144,-0.449642 -5e-6,-0.285749 -0.124672,-0.428626 -0.374001,-0.428631 -0.386613,5e-6 -0.865671,0.222725 -1.437175,0.66816 -0.56871,0.442643 -1.05197,1.005746 -1.449782,1.689311 -0.397816,0.68077 -0.596723,1.308308 -0.596722,1.882615 -10e-7,0.383808 0.11346,0.70318 0.340384,0.958117 0.229722,0.252136 0.556097,0.378204 0.979128,0.378204 0.243728,0 0.539287,-0.06023 0.886678,-0.180698 0.350185,-0.123266 0.670958,-0.287154 0.962319,-0.491665 0.291352,-0.204509 0.463645,-0.306764 0.516879,-0.306765"
       id="path3826"
       inkscape:connector-curvature="0" />
    <path
       d="m 56.000399,68.183992 c -0.358596,0.602326 -0.725594,1.068777 -1.100993,1.399355 -0.375405,0.330578 -0.724193,0.495867 -1.046365,0.495867 -0.184901,0 -0.374002,-0.107858 -0.567306,-0.323574 -0.190503,-0.215716 -0.285754,-0.547695 -0.285754,-0.995937 0,-0.366996 0.08825,-0.907688 0.264743,-1.622075 0.148479,-0.596718 0.222719,-1.015544 0.22272,-1.256478 0.08124,-0.168086 0.208711,-0.252131 0.382406,-0.252136 0.117662,5e-6 0.211513,0.04203 0.281552,0.126068 0.07004,0.08125 0.105055,0.166694 0.105057,0.256339 -2e-6,0.196109 -0.06864,0.474859 -0.205911,0.836251 -0.260542,0.703181 -0.390812,1.306906 -0.390811,1.811176 -10e-7,0.459449 0.106456,0.689173 0.319372,0.689172 0.271745,10e-7 0.617731,-0.231124 1.03796,-0.693374 0.420224,-0.462247 0.780217,-1.106594 1.079982,-1.933042 0.11766,-0.330575 0.212911,-0.54489 0.285755,-0.642947 0.07564,-0.10085 0.176491,-0.151278 0.302563,-0.151282 0.190498,4e-6 0.285749,0.126072 0.285754,0.378204 -5e-6,0.03082 -0.02662,0.133076 -0.07984,0.306766 -0.168095,0.613533 -0.25214,1.193446 -0.252136,1.739738 -4e-6,0.655555 0.107854,1.079983 0.323574,1.273287 0.112056,0.103656 0.168086,0.187701 0.168091,0.252136 -5e-6,0.07844 -0.05744,0.14988 -0.172293,0.214315 -0.112065,0.06444 -0.21432,0.09665 -0.306765,0.09665 -0.19611,0 -0.354395,-0.145678 -0.474857,-0.437035 -0.120468,-0.291357 -0.1807,-0.721388 -0.180697,-1.290096 l 0,-0.138675 c -3e-6,-0.04482 0.0014,-0.09105 0.0042,-0.138675"
       id="path3828"
       inkscape:connector-curvature="0" />
    <path
       d="m 61.450741,66.687986 c -0.260544,0.0056 -0.818044,0.777421 -1.672502,2.315448 -0.288557,0.51828 -0.456648,0.801233 -0.504272,0.848858 -0.04763,0.04482 -0.135875,0.08545 -0.264743,0.121866 -0.126069,0.03642 -0.231125,0.05463 -0.31517,0.05463 -0.187702,0 -0.281552,-0.365597 -0.281552,-1.096791 0,-0.411821 0.08825,-1.157022 0.264743,-2.235606 0.07284,-0.437032 0.109258,-0.7494 0.109259,-0.937105 -10e-7,-0.184896 0.08264,-0.277345 0.247934,-0.27735 0.310966,5e-6 0.46645,0.224125 0.466451,0.672363 -10e-7,0.210117 -0.05183,0.621938 -0.155483,1.235466 -0.120467,0.70038 -0.1821,1.126209 -0.1849,1.277489 0.173692,-0.168089 0.428629,-0.536487 0.764812,-1.105196 0.476254,-0.778817 0.826443,-1.271882 1.050567,-1.479198 0.226919,-0.210109 0.460845,-0.315165 0.701778,-0.31517 0.182094,5e-6 0.326372,0.12187 0.432834,0.365597 0.109254,0.243736 0.17509,0.825048 0.197506,1.743941 0.0056,0.229726 0.02661,0.400618 0.06303,0.512676 0.03641,0.112062 0.06303,0.168092 0.07984,0.168091 0.131666,10e-7 0.41742,-0.44824 0.857263,-1.344725 0.235321,-0.473452 0.463644,-0.833446 0.684969,-1.079983 0.224114,-0.246528 0.472048,-0.369795 0.743801,-0.369799 0.226915,4e-6 0.392204,0.117668 0.495867,0.35299 0.103649,0.232529 0.177889,0.578516 0.222721,1.03796 0.04201,0.465053 0.106449,0.890883 0.193304,1.277489 0.08964,0.38661 0.252128,0.634543 0.487463,0.743801 0.159677,0.07564 0.23952,0.163889 0.239529,0.264743 -9e-6,0.09805 -0.06724,0.198908 -0.201709,0.302563 -0.134481,0.103656 -0.257747,0.155484 -0.369799,0.155484 -0.224129,0 -0.424437,-0.137274 -0.600924,-0.411822 -0.176503,-0.274547 -0.309574,-0.868467 -0.399216,-1.781761 -0.03923,-0.366995 -0.07705,-0.627535 -0.113461,-0.781622 -0.03643,-0.154079 -0.09386,-0.231121 -0.172293,-0.231124 -0.11767,3e-6 -0.257745,0.112063 -0.420226,0.336181 -0.159693,0.224124 -0.418832,0.679369 -0.77742,1.365737 -0.280156,0.535089 -0.493071,0.892282 -0.638744,1.071578 -0.142882,0.176495 -0.281557,0.264743 -0.416024,0.264742 -0.12047,10e-7 -0.228328,-0.04762 -0.323575,-0.142877 -0.09526,-0.09805 -0.155488,-0.214315 -0.180697,-0.348788 -0.02522,-0.137273 -0.05183,-0.472053 -0.07984,-1.004341 -0.04203,-0.885275 -0.119069,-1.400753 -0.231125,-1.546434"
       id="path3830"
       inkscape:connector-curvature="0" />
    <path
       d="m 67.930635,69.524515 c -0.137275,0.504272 -0.266144,1.211653 -0.386608,2.122145 l -0.117664,0.794228 c -0.01961,0.112058 -0.07144,0.222717 -0.155484,0.331979 -0.08404,0.112058 -0.161087,0.168088 -0.231124,0.168091 -0.08685,-3e-6 -0.186301,-0.04483 -0.298361,-0.134473 -0.109259,-0.08685 -0.163888,-0.156887 -0.163888,-0.210113 0,-0.154086 0.03502,-0.367 0.105056,-0.638745 0.512676,-2.070316 0.769014,-3.888495 0.769015,-5.454541 l -0.0042,-0.352991 c -0.0056,-0.302559 0.04762,-0.522477 0.159686,-0.659755 0.112059,-0.13727 0.240928,-0.205907 0.386608,-0.205911 0.06723,4e-6 0.13167,0.05323 0.193305,0.159686 0.06163,0.10366 0.09245,0.25214 0.09245,0.44544 -10e-7,0.27175 -0.02802,0.600928 -0.08404,0.987533 -0.07284,0.487465 -0.110661,0.767616 -0.113461,0.840453 0.417423,-0.72839 0.860061,-1.297096 1.327916,-1.70612 0.467849,-0.409016 0.902083,-0.613527 1.302703,-0.613531 0.282948,4e-6 0.521076,0.106462 0.714385,0.319372 0.1961,0.210117 0.294153,0.472058 0.294158,0.785824 -5e-6,0.913295 -0.350193,1.742541 -1.050566,2.487741 -0.700381,0.745203 -1.382548,1.117803 -2.046504,1.117803 -0.165291,0 -0.296962,-0.04202 -0.395013,-0.126068 -0.09525,-0.08405 -0.194706,-0.236727 -0.298361,-0.458047 m 2.609608,-3.382824 c -0.395017,4e-6 -0.88388,0.369803 -1.466591,1.109398 -0.582716,0.739601 -0.874073,1.315311 -0.874072,1.727132 -1e-6,0.100855 0.05743,0.198908 0.172293,0.294158 0.11486,0.09525 0.260539,0.142878 0.437036,0.142877 0.400613,10e-7 0.861461,-0.295558 1.382545,-0.886678 0.521077,-0.593918 0.781618,-1.176632 0.781622,-1.748143 -4e-6,-0.204506 -0.04203,-0.361391 -0.126068,-0.470653 -0.08125,-0.112057 -0.183503,-0.168087 -0.306765,-0.168091"
       id="path3832"
       inkscape:connector-curvature="0" />
    <path
       d="m 75.515722,68.482353 c -0.392214,0.526685 -0.780223,0.921698 -1.164027,1.185039 -0.383809,0.263342 -0.735399,0.395013 -1.054769,0.395013 -0.215718,0 -0.402018,-0.09105 -0.558902,-0.273147 -0.156885,-0.182098 -0.235327,-0.416024 -0.235327,-0.701778 0,-0.736796 0.329177,-1.529623 0.987533,-2.378483 0.658353,-0.851655 1.312505,-1.277484 1.962458,-1.277489 0.235324,5e-6 0.410418,0.134477 0.525284,0.403418 0.03642,0.08965 0.09385,0.134476 0.172293,0.134472 0.224116,4e-6 0.336176,0.08685 0.336181,0.260541 -5e-6,0.08685 -0.01401,0.205914 -0.04202,0.357192 -0.151286,0.826448 -0.226926,1.409162 -0.226922,1.748143 -4e-6,0.677967 0.128865,1.084185 0.386608,1.218657 0.123262,0.06724 0.184895,0.149881 0.1849,0.247934 -5e-6,0.08685 -0.06024,0.173694 -0.180697,0.26054 -0.12047,0.08965 -0.236732,0.134473 -0.348789,0.134473 -0.21572,0 -0.393616,-0.14848 -0.533687,-0.44544 -0.140079,-0.29696 -0.210117,-0.719988 -0.210114,-1.269085 m -0.256338,-2.365876 c -0.369802,4e-6 -0.799834,0.347391 -1.290096,1.042162 -0.490265,0.691976 -0.735397,1.266285 -0.735396,1.72293 -10e-7,0.322174 0.106456,0.483261 0.319372,0.48326 0.308164,10e-7 0.735394,-0.310967 1.281691,-0.932903 0.546292,-0.621933 0.819439,-1.193441 0.819442,-1.714525 -3e-6,-0.400612 -0.131674,-0.60092 -0.395013,-0.600924 m 1.122005,-1.554838 c -0.08405,0.07565 -0.245136,0.159691 -0.48326,0.252136 -0.235331,0.09245 -0.444043,0.13868 -0.626138,0.138675 -0.145682,5e-6 -0.358596,-0.08964 -0.638745,-0.268945 -0.277351,-0.182093 -0.473457,-0.389405 -0.588317,-0.621936 -0.114864,-0.235321 -0.172295,-0.375396 -0.172293,-0.420226 -2e-6,-0.07563 0.03222,-0.158279 0.09665,-0.247934 0.06723,-0.08964 0.13307,-0.134466 0.197507,-0.134473 0.05043,7e-6 0.09525,0.04483 0.134472,0.134473 0.112059,0.26615 0.257737,0.495873 0.437036,0.689172 0.182095,0.190508 0.383804,0.285759 0.605126,0.285754 0.453841,5e-6 0.820839,-0.207306 1.100994,-0.621936 0.01961,-0.03361 0.07424,-0.09945 0.163889,-0.197506 0.09244,-0.09805 0.152677,-0.147073 0.180697,-0.14708 0.04202,7e-6 0.08684,0.04483 0.134473,0.134473 0.05042,0.08966 0.07563,0.159692 0.07564,0.210113 -5e-6,0.08685 -0.07004,0.221326 -0.210113,0.403418 -0.137279,0.179302 -0.273152,0.316576 -0.40762,0.411822"
       id="path3834"
       inkscape:connector-curvature="0" />
    <path
       d="m 78.591785,68.343678 c 0.02801,-0.05042 0.06163,-0.120463 0.100854,-0.210113 0.190501,-0.437033 0.365596,-0.778817 0.525283,-1.025353 0.159684,-0.249331 0.334779,-0.487459 0.525284,-0.714385 0.193301,-0.226919 0.368396,-0.399211 0.525283,-0.516879 0.159683,-0.117659 0.303961,-0.198903 0.432833,-0.243731 0.128866,-0.04762 0.253533,-0.07143 0.374002,-0.07144 0.243727,5e-6 0.442635,0.07424 0.596722,0.22272 0.154078,0.145683 0.23112,0.316575 0.231125,0.512677 -5e-6,0.08685 -0.02802,0.165292 -0.08405,0.235327 -0.05323,0.07004 -0.135877,0.10506 -0.247933,0.105056 -0.117668,4e-6 -0.225526,-0.05182 -0.323575,-0.155483 -0.100858,-0.103653 -0.205915,-0.155481 -0.31517,-0.155484 -0.29136,3e-6 -0.694778,0.352993 -1.210253,1.058971 -0.51548,0.705982 -0.829248,1.483401 -0.941307,2.332258 -0.02802,0.218517 -0.08125,0.362795 -0.159686,0.432833 -0.07844,0.07004 -0.189104,0.105056 -0.331979,0.105057 -0.137275,-10e-7 -0.236729,-0.102256 -0.298361,-0.306766 -0.06163,-0.20451 -0.09245,-0.549095 -0.09245,-1.033757 -1e-6,-0.13167 0.007,-0.421626 0.02101,-0.869869 0.01681,-0.529483 0.05043,-0.956713 0.100855,-1.281692 0.0084,-0.05322 0.02241,-0.177892 0.04202,-0.374001 0.01961,-0.215713 0.04342,-0.365594 0.07144,-0.449643 0.03082,-0.08404 0.09105,-0.162483 0.180697,-0.235327 0.09245,-0.07283 0.191902,-0.109254 0.298361,-0.109259 0.103655,5e-6 0.180696,0.03362 0.231125,0.100855 0.05323,0.06444 0.07984,0.134476 0.07984,0.210113 -2e-6,0.109263 -0.02802,0.263346 -0.08405,0.462249 -0.06444,0.221323 -0.102257,0.374005 -0.113462,0.458047 -0.0084,0.09525 -0.02381,0.194708 -0.04623,0.298361 -0.02802,0.120468 -0.05603,0.437038 -0.08405,0.949712 l -0.0042,0.155484 0,0.113461"
       id="path3836"
       inkscape:connector-curvature="0" />
    <path
       d="m 84.962416,68.482353 c -0.392215,0.526685 -0.780224,0.921698 -1.164028,1.185039 -0.383809,0.263342 -0.735398,0.395013 -1.054769,0.395013 -0.215717,0 -0.402017,-0.09105 -0.558901,-0.273147 -0.156885,-0.182098 -0.235328,-0.416024 -0.235327,-0.701778 -1e-6,-0.736796 0.329177,-1.529623 0.987532,-2.378483 0.658353,-0.851655 1.312506,-1.277484 1.962459,-1.277489 0.235323,5e-6 0.410417,0.134477 0.525283,0.403418 0.03642,0.08965 0.09385,0.134476 0.172293,0.134472 0.224117,4e-6 0.336177,0.08685 0.336181,0.260541 -4e-6,0.08685 -0.01401,0.205914 -0.04202,0.357192 -0.151286,0.826448 -0.226927,1.409162 -0.226923,1.748143 -4e-6,0.677967 0.128865,1.084185 0.386609,1.218657 0.123262,0.06724 0.184895,0.149881 0.184899,0.247934 -4e-6,0.08685 -0.06024,0.173694 -0.180697,0.26054 -0.120469,0.08965 -0.236732,0.134473 -0.348788,0.134473 -0.21572,0 -0.393616,-0.14848 -0.533688,-0.44544 -0.140079,-0.29696 -0.210117,-0.719988 -0.210113,-1.269085 M 84.70608,66.116477 c -0.369803,4e-6 -0.799834,0.347391 -1.290096,1.042162 -0.490266,0.691976 -0.735398,1.266285 -0.735397,1.72293 -10e-7,0.322174 0.106456,0.483261 0.319372,0.48326 0.308165,10e-7 0.735395,-0.310967 1.281692,-0.932903 0.546291,-0.621933 0.819438,-1.193441 0.819442,-1.714525 -4e-6,-0.400612 -0.131675,-0.60092 -0.395013,-0.600924 m 1.122005,-1.554838 c -0.08405,0.07565 -0.245137,0.159691 -0.483261,0.252136 -0.23533,0.09245 -0.444043,0.13868 -0.626138,0.138675 -0.145681,5e-6 -0.358596,-0.08964 -0.638744,-0.268945 -0.277352,-0.182093 -0.473458,-0.389405 -0.588317,-0.621936 -0.114864,-0.235321 -0.172295,-0.375396 -0.172293,-0.420226 -2e-6,-0.07563 0.03222,-0.158279 0.09665,-0.247934 0.06723,-0.08964 0.13307,-0.134466 0.197506,-0.134473 0.05042,7e-6 0.09525,0.04483 0.134473,0.134473 0.112058,0.26615 0.257736,0.495873 0.437035,0.689172 0.182096,0.190508 0.383804,0.285759 0.605127,0.285754 0.453841,5e-6 0.820838,-0.207306 1.100994,-0.621936 0.01961,-0.03361 0.07424,-0.09945 0.163888,-0.197506 0.09245,-0.09805 0.152678,-0.147073 0.180697,-0.14708 0.04202,7e-6 0.08684,0.04483 0.134473,0.134473 0.05042,0.08966 0.07564,0.159692 0.07564,0.210113 -5e-6,0.08685 -0.07004,0.221326 -0.210114,0.403418 -0.137278,0.179302 -0.273151,0.316576 -0.407619,0.411822"
       id="path3838"
       inkscape:connector-curvature="0" />
    <path
       d="m 87.269464,70.810409 c 0.521079,-0.12887 0.85586,-0.312369 1.004341,-0.550497 0.148478,-0.235327 0.222718,-0.403418 0.22272,-0.504272 -2e-6,-0.285754 -0.03922,-0.487462 -0.117663,-0.605126 -0.03642,-0.05323 -0.05463,-0.105056 -0.05463,-0.155484 -10e-7,-0.04202 0.01821,-0.102254 0.05463,-0.180698 0.03922,-0.07844 0.07844,-0.117662 0.117663,-0.117663 0.05883,10e-7 0.15128,0.02241 0.27735,0.06724 0.126066,0.04202 0.200306,0.07984 0.22272,0.113461 0.02241,0.03082 0.05883,0.134474 0.109259,0.310968 0.05323,0.176496 0.07984,0.327777 0.07984,0.453845 -3e-6,0.04763 -0.05323,0.194705 -0.159686,0.441238 -0.103658,0.249334 -0.246535,0.442638 -0.428631,0.579912 -0.1821,0.140075 -0.352992,0.225521 -0.512677,0.256339 -0.06444,0.01121 -0.124668,0.02661 -0.180697,0.04622 -0.221321,0.09805 -0.402018,0.147078 -0.542093,0.147079 -0.08124,-10e-7 -0.121866,-0.06584 -0.121865,-0.197507 -10e-7,-0.05043 0.0098,-0.08545 0.02942,-0.105056"
       id="path3840"
       inkscape:connector-curvature="0" />
    <path
       d="m 95.165521,64.889416 c -0.05323,0.09526 -0.130273,0.402021 -0.231125,0.920296 -0.100856,0.515482 -0.151283,0.948315 -0.151282,1.2985 0.193303,-0.03081 0.39221,-0.05743 0.596722,-0.07984 l 0.882476,-0.100854 c 0.140072,-0.01961 0.336178,-0.06303 0.588317,-0.130271 0.254934,-0.06723 0.428627,-0.100851 0.521081,-0.100854 0.330574,3e-6 0.495863,0.134476 0.495868,0.403418 -5e-6,0.05323 -0.04763,0.120467 -0.142877,0.201708 -0.09246,0.08125 -0.217122,0.138678 -0.374002,0.172293 -0.154087,0.03362 -0.528089,0.08265 -1.122005,0.14708 -0.728395,0.08405 -1.161228,0.148482 -1.2985,0.193304 -0.134475,0.04202 -0.214318,0.08545 -0.239529,0.13027 -0.02522,0.04202 -0.05183,0.245134 -0.07984,0.609329 -0.02802,0.361396 -0.04202,0.655554 -0.04202,0.882476 l 0.01681,0.521081 c -2e-6,0.285754 -0.103657,0.42863 -0.310968,0.428631 -0.12887,-10e-7 -0.247935,-0.04903 -0.357192,-0.147079 -0.10926,-0.09805 -0.16389,-0.229724 -0.163889,-0.395013 -1e-6,-0.64995 0.159685,-2.019888 0.479059,-4.109817 0.07564,-0.487458 0.113459,-0.749399 0.113461,-0.785824 -2e-6,-0.05322 -0.01681,-0.134467 -0.05043,-0.243731 -0.04483,-0.137269 -0.06724,-0.23252 -0.06724,-0.285754 -10e-7,-0.07564 0.04202,-0.156879 0.126068,-0.243732 0.08404,-0.08964 0.163887,-0.134466 0.239529,-0.134472 l 0.5547,0.06303 c 0.170889,6e-6 0.488861,-0.02801 0.953914,-0.08405 0.790022,-0.09525 1.332114,-0.142871 1.626277,-0.142878 0.257734,7e-6 0.442634,0.03923 0.554699,0.117664 0.112055,0.07845 0.168085,0.15549 0.168091,0.231125 -6e-6,0.134478 -0.04623,0.25074 -0.138675,0.348788 -0.08965,0.09526 -0.186306,0.142882 -0.289956,0.142877 -0.04763,5e-6 -0.09946,-0.0056 -0.155484,-0.01681 -0.305369,-0.05042 -0.537895,-0.07564 -0.697576,-0.07564 -0.299766,5e-6 -0.689175,0.02802 -1.16823,0.08405 -0.47626,0.05323 -0.75501,0.113467 -0.836251,0.180698"
       id="path3842"
       inkscape:connector-curvature="0" />
    <path
       d="m 101.51935,68.482353 c -0.39222,0.526685 -0.78023,0.921698 -1.16403,1.185039 -0.38381,0.263342 -0.7354,0.395013 -1.05477,0.395013 -0.215718,0 -0.402018,-0.09105 -0.558902,-0.273147 -0.156885,-0.182098 -0.235327,-0.416024 -0.235327,-0.701778 0,-0.736796 0.329177,-1.529623 0.987533,-2.378483 0.658356,-0.851655 1.312506,-1.277484 1.962456,-1.277489 0.23533,5e-6 0.41042,0.134477 0.52529,0.403418 0.0364,0.08965 0.0938,0.134476 0.17229,0.134472 0.22412,4e-6 0.33618,0.08685 0.33618,0.260541 0,0.08685 -0.014,0.205914 -0.042,0.357192 -0.15129,0.826448 -0.22693,1.409162 -0.22693,1.748143 0,0.677967 0.12887,1.084185 0.38661,1.218657 0.12327,0.06724 0.1849,0.149881 0.1849,0.247934 0,0.08685 -0.0602,0.173694 -0.18069,0.26054 -0.12047,0.08965 -0.23674,0.134473 -0.34879,0.134473 -0.21572,0 -0.39362,-0.14848 -0.53369,-0.44544 -0.14008,-0.29696 -0.21012,-0.719988 -0.21011,-1.269085 m -0.25634,-2.365876 c -0.3698,4e-6 -0.79984,0.347391 -1.290098,1.042162 -0.490265,0.691976 -0.735397,1.266285 -0.735396,1.72293 -1e-6,0.322174 0.106456,0.483261 0.319372,0.48326 0.308164,10e-7 0.735392,-0.310967 1.281692,-0.932903 0.54629,-0.621933 0.81944,-1.193441 0.81944,-1.714525 0,-0.400612 -0.13167,-0.60092 -0.39501,-0.600924 m 1.122,-1.554838 c -0.084,0.07565 -0.24513,0.159691 -0.48326,0.252136 -0.23533,0.09245 -0.44404,0.13868 -0.62614,0.138675 -0.14568,5e-6 -0.35859,-0.08964 -0.63874,-0.268945 -0.27735,-0.182093 -0.47346,-0.389405 -0.58832,-0.621936 -0.114861,-0.235321 -0.172292,-0.375396 -0.17229,-0.420226 -2e-6,-0.07563 0.03222,-0.158279 0.09665,-0.247934 0.06724,-0.08964 0.13307,-0.134466 0.19751,-0.134473 0.0504,7e-6 0.0953,0.04483 0.13447,0.134473 0.11206,0.26615 0.25774,0.495873 0.43704,0.689172 0.18209,0.190508 0.3838,0.285759 0.60512,0.285754 0.45384,5e-6 0.82084,-0.207306 1.101,-0.621936 0.0196,-0.03361 0.0742,-0.09945 0.16389,-0.197506 0.0924,-0.09805 0.15267,-0.147073 0.18069,-0.14708 0.042,7e-6 0.0868,0.04483 0.13448,0.134473 0.0504,0.08966 0.0756,0.159692 0.0756,0.210113 -1e-5,0.08685 -0.0701,0.221326 -0.21012,0.403418 -0.13728,0.179302 -0.27315,0.316576 -0.40762,0.411822"
       id="path3844"
       inkscape:connector-curvature="0" />
    <path
       d="m 105.89811,67.276303 0.30677,0 c 0.52107,3e-6 0.90908,-0.01821 1.16402,-0.05463 0.12327,-0.01681 0.24653,-0.02521 0.3698,-0.02521 0.0532,3e-6 0.16109,0.03222 0.32358,0.09665 0.16528,0.06444 0.26334,0.119067 0.29416,0.163888 0.0308,0.04203 0.0462,0.09946 0.0462,0.172293 0,0.103658 -0.021,0.176498 -0.063,0.218518 -0.042,0.04203 -0.13308,0.06304 -0.27315,0.06303 -0.0616,2e-6 -0.14848,-0.01821 -0.26054,-0.05463 -0.11206,-0.03642 -0.20592,-0.05463 -0.28155,-0.05463 -0.0308,2e-6 -0.13308,0.007 -0.30677,0.02101 -0.0924,0.0084 -0.26054,0.0014 -0.50427,-0.02101 -0.1877,-0.01681 -0.32778,-0.02521 -0.42023,-0.02521 -0.12887,2e-6 -0.32357,0.0084 -0.58411,0.02521 -0.26054,0.01681 -0.45805,0.02522 -0.59252,0.02521 -0.13447,2e-6 -0.24373,-0.01401 -0.32778,-0.04202 -0.0812,-0.03081 -0.12186,-0.09805 -0.12186,-0.201709 0,-0.04482 0.0182,-0.09665 0.0546,-0.155484 0.0392,-0.06163 0.16809,-0.109256 0.38661,-0.142877 0.21851,-0.03642 0.3754,-0.05463 0.47065,-0.05463 l 0.31937,0.04622"
       id="path3846"
       inkscape:connector-curvature="0" />
    <path
       d="m 110.97025,65.771892 c 0.28855,-0.02241 0.5603,-0.04902 0.81524,-0.07984 0.25213,-0.02801 0.46224,-0.04202 0.63034,-0.04202 0.21291,4e-6 0.34738,0.01962 0.40341,0.05883 0.056,0.03922 0.0841,0.107862 0.0841,0.205911 0,0.226926 -0.15829,0.350192 -0.47486,0.369799 -0.40622,0.02522 -0.78022,0.06024 -1.122,0.105057 -0.34179,0.04483 -0.52669,0.08265 -0.5547,0.113461 -0.0252,0.02802 -0.10926,0.361398 -0.25214,1.000139 -0.14287,0.635945 -0.21431,1.049167 -0.21431,1.239669 0,0.308167 0.0406,0.514078 0.12186,0.617733 0.0812,0.100855 0.20311,0.151282 0.3656,0.151281 0.24093,1e-6 0.57571,-0.180696 1.00434,-0.542092 0.16529,-0.148479 0.29276,-0.222719 0.38241,-0.22272 0.12046,10e-7 0.18069,0.06444 0.1807,0.193304 -10e-6,0.20171 -0.19471,0.463651 -0.58412,0.785824 -0.38661,0.319372 -0.78302,0.479058 -1.18924,0.479058 -0.67797,0 -1.01695,-0.399215 -1.01695,-1.197645 0,-0.288555 0.07,-0.735395 0.21012,-1.340523 0.13727,-0.602322 0.2059,-0.963717 0.20591,-1.084185 -10e-6,-0.04202 -0.0336,-0.06303 -0.10086,-0.06303 l -0.43703,0.03782 c -0.3586,4e-6 -0.53789,-0.142873 -0.53789,-0.428631 0,-0.162483 0.0826,-0.243727 0.24793,-0.243731 l 0.86567,0 c 0.0588,4e-6 0.11065,-0.02661 0.15548,-0.07984 0.0448,-0.05322 0.11066,-0.231121 0.19751,-0.533688 0.0868,-0.30536 0.16388,-0.606522 0.23112,-0.903487 0.0672,-0.294153 0.19891,-0.441232 0.39501,-0.441238 0.12047,6e-6 0.21432,0.04203 0.28156,0.126068 0.0672,0.08405 0.10085,0.162493 0.10085,0.235327 0,0.03923 -0.0504,0.239534 -0.15128,0.600924 l -0.24373,0.882476 m -1.82379,7.034593 c 0.52108,-0.128872 0.85586,-0.312371 1.00435,-0.550497 0.14847,-0.235329 0.22271,-0.403419 0.22272,-0.504272 -1e-5,-0.285755 -0.0392,-0.487464 -0.11767,-0.605126 -0.0364,-0.05323 -0.0546,-0.105058 -0.0546,-0.155484 0,-0.04202 0.0182,-0.102256 0.0546,-0.180697 0.0392,-0.07844 0.0784,-0.117664 0.11767,-0.117664 0.0588,0 0.15128,0.02101 0.27735,0.06303 0.12606,0.04482 0.2003,0.08264 0.22272,0.113461 0.0224,0.03362 0.0588,0.138674 0.10925,0.31517 0.0532,0.176494 0.0799,0.327776 0.0799,0.453845 0,0.04762 -0.0532,0.194703 -0.15969,0.441238 -0.10366,0.249332 -0.24653,0.442636 -0.42863,0.579913 -0.1821,0.140073 -0.35299,0.225519 -0.51268,0.256338 -0.0644,0.0112 -0.12466,0.02661 -0.18069,0.04622 -0.22132,0.09805 -0.40202,0.147076 -0.5421,0.147079 -0.0812,-3e-6 -0.12186,-0.06584 -0.12186,-0.197506 0,-0.05043 0.01,-0.08545 0.0294,-0.105057"
       id="path3848"
       inkscape:connector-curvature="0" />
    <path
       d="m 114.64723,64.385144 c -0.0588,5e-6 -0.10366,-0.06303 -0.13448,-0.189102 -0.0112,-0.03922 -0.0266,-0.08264 -0.0462,-0.130271 -0.0756,-0.182092 -0.11346,-0.340377 -0.11346,-0.474856 0,-0.112054 0.0658,-0.225515 0.19751,-0.340383 0.13447,-0.117657 0.28295,-0.176488 0.44544,-0.176495 0.0812,7e-6 0.17229,0.03222 0.27314,0.09665 0.10085,0.06164 0.15128,0.121872 0.15128,0.180697 0,0.09246 -0.035,0.249341 -0.10505,0.470654 -0.0672,0.221325 -0.1765,0.371206 -0.32778,0.449642 -0.14848,0.07565 -0.26194,0.113467 -0.34038,0.113462 m -0.5505,4.693931 c 0,0.212916 0.0294,0.452445 0.0883,0.718588 0.0112,0.05043 0.0168,0.09245 0.0168,0.126068 0,0.05043 -0.0462,0.114861 -0.13868,0.193304 -0.0924,0.08124 -0.1905,0.121865 -0.29416,0.121866 -0.27174,-10e-7 -0.40762,-0.249335 -0.40762,-0.748004 0,-0.515477 0.10646,-1.330716 0.31938,-2.445719 0.0728,-0.389406 0.10925,-0.628935 0.10925,-0.718587 0,-0.176492 0.0322,-0.326372 0.0967,-0.449643 0.0644,-0.126064 0.15548,-0.189097 0.27314,-0.189102 0.14288,5e-6 0.25494,0.03502 0.33619,0.105057 0.084,0.06724 0.12606,0.142881 0.12606,0.226922 0,0.08405 -0.0196,0.194709 -0.0588,0.331979 -0.21011,0.739602 -0.34038,1.269087 -0.39081,1.588457 -0.0504,0.319374 -0.0756,0.698978 -0.0756,1.138814"
       id="path3850"
       inkscape:connector-curvature="0" />
    <path
       d="m 120.93802,65.771892 c 0.28855,-0.02241 0.5603,-0.04902 0.81524,-0.07984 0.25213,-0.02801 0.46225,-0.04202 0.63034,-0.04202 0.21291,4e-6 0.34738,0.01962 0.40342,0.05883 0.056,0.03922 0.084,0.107862 0.084,0.205911 0,0.226926 -0.15829,0.350192 -0.47485,0.369799 -0.40622,0.02522 -0.78023,0.06024 -1.12201,0.105057 -0.34178,0.04483 -0.52668,0.08265 -0.5547,0.113461 -0.0252,0.02802 -0.10926,0.361398 -0.25213,1.000139 -0.14288,0.635945 -0.21432,1.049167 -0.21432,1.239669 0,0.308167 0.0406,0.514078 0.12187,0.617733 0.0812,0.100855 0.20311,0.151282 0.36559,0.151281 0.24093,1e-6 0.57571,-0.180696 1.00435,-0.542092 0.16528,-0.148479 0.29275,-0.222719 0.3824,-0.22272 0.12046,10e-7 0.1807,0.06444 0.1807,0.193304 0,0.20171 -0.19471,0.463651 -0.58412,0.785824 -0.38661,0.319372 -0.78302,0.479058 -1.18924,0.479058 -0.67796,0 -1.01695,-0.399215 -1.01694,-1.197645 -10e-6,-0.288555 0.07,-0.735395 0.21011,-1.340523 0.13727,-0.602322 0.20591,-0.963717 0.20591,-1.084185 0,-0.04202 -0.0336,-0.06303 -0.10085,-0.06303 l -0.43704,0.03782 c -0.35859,4e-6 -0.53789,-0.142873 -0.53789,-0.428631 0,-0.162483 0.0826,-0.243727 0.24793,-0.243731 l 0.86567,0 c 0.0588,4e-6 0.11066,-0.02661 0.15548,-0.07984 0.0448,-0.05322 0.11066,-0.231121 0.19751,-0.533688 0.0868,-0.30536 0.16389,-0.606522 0.23112,-0.903487 0.0672,-0.294153 0.19891,-0.441232 0.39502,-0.441238 0.12046,6e-6 0.21431,0.04203 0.28155,0.126068 0.0672,0.08405 0.10085,0.162493 0.10085,0.235327 0,0.03923 -0.0504,0.239534 -0.15128,0.600924 l -0.24373,0.882476"
       id="path3852"
       inkscape:connector-curvature="0" />
    <path
       d="m 124.11073,68.343678 c 0.028,-0.05042 0.0616,-0.120463 0.10085,-0.210113 0.1905,-0.437033 0.3656,-0.778817 0.52529,-1.025353 0.15968,-0.249331 0.33477,-0.487459 0.52528,-0.714385 0.1933,-0.226919 0.3684,-0.399211 0.52528,-0.516879 0.15969,-0.117659 0.30396,-0.198903 0.43284,-0.243731 0.12886,-0.04762 0.25353,-0.07143 0.374,-0.07144 0.24373,5e-6 0.44263,0.07424 0.59672,0.22272 0.15408,0.145683 0.23112,0.316575 0.23112,0.512677 0,0.08685 -0.028,0.165292 -0.084,0.235327 -0.0532,0.07004 -0.13588,0.10506 -0.24793,0.105056 -0.11767,4e-6 -0.22553,-0.05182 -0.32358,-0.155483 -0.10086,-0.103653 -0.20591,-0.155481 -0.31517,-0.155484 -0.29136,3e-6 -0.69478,0.352993 -1.21025,1.058971 -0.51548,0.705982 -0.82925,1.483401 -0.94131,2.332258 -0.028,0.218517 -0.0812,0.362795 -0.15969,0.432833 -0.0784,0.07004 -0.1891,0.105056 -0.33197,0.105057 -0.13728,-10e-7 -0.23673,-0.102256 -0.29837,-0.306766 -0.0616,-0.20451 -0.0924,-0.549095 -0.0924,-1.033757 0,-0.13167 0.007,-0.421626 0.021,-0.869869 0.0168,-0.529483 0.0504,-0.956713 0.10085,-1.281692 0.008,-0.05322 0.0224,-0.177892 0.042,-0.374001 0.0196,-0.215713 0.0434,-0.365594 0.0714,-0.449643 0.0308,-0.08404 0.091,-0.162483 0.1807,-0.235327 0.0924,-0.07283 0.1919,-0.109254 0.29836,-0.109259 0.10365,5e-6 0.1807,0.03362 0.23112,0.100855 0.0532,0.06444 0.0799,0.134476 0.0799,0.210113 0,0.109263 -0.028,0.263346 -0.0841,0.462249 -0.0644,0.221323 -0.10225,0.374005 -0.11346,0.458047 -0.008,0.09525 -0.0238,0.194708 -0.0462,0.298361 -0.028,0.120468 -0.056,0.437038 -0.0841,0.949712 l -0.004,0.155484 0,0.113461"
       id="path3854"
       inkscape:connector-curvature="0" />
    <path
       d="m 131.2966,68.58741 c 0,0.285755 -0.25354,0.630341 -0.76061,1.033757 -0.50427,0.403418 -1.02535,0.605127 -1.56324,0.605127 -0.45105,0 -0.79983,-0.133072 -1.04637,-0.399216 -0.24373,-0.266143 -0.36559,-0.637342 -0.36559,-1.1136 0,-0.80123 0.27034,-1.56324 0.81103,-2.286033 0.54069,-0.722785 1.13181,-1.08418 1.77336,-1.084185 0.21011,5e-6 0.381,0.06864 0.51268,0.205911 0.13447,0.137279 0.2017,0.302568 0.20171,0.495868 -1e-5,0.431436 -0.21152,0.844658 -0.63455,1.239668 -0.42303,0.395016 -0.98893,0.783025 -1.69771,1.164028 -0.14568,0.07564 -0.21852,0.173695 -0.21852,0.294159 0,0.232526 0.0672,0.418826 0.20171,0.558901 0.13447,0.140076 0.33338,0.210114 0.59672,0.210113 0.60232,10e-7 1.21725,-0.333378 1.8448,-1.000139 0.0924,-0.09245 0.16248,-0.138673 0.21011,-0.138675 0.0896,2e-6 0.13447,0.07144 0.13447,0.214316 m -2.92057,-0.655554 c 1.18784,-0.705978 1.78176,-1.273283 1.78176,-1.701917 0,-0.168087 -0.0756,-0.252132 -0.22692,-0.252136 -0.25775,4e-6 -0.5491,0.189105 -0.87408,0.567306 -0.32217,0.378207 -0.54909,0.840455 -0.68076,1.386747"
       id="path3856"
       inkscape:connector-curvature="0" />
    <path
       d="m 135.00301,68.482353 c -0.39221,0.526685 -0.78022,0.921698 -1.16403,1.185039 -0.3838,0.263342 -0.73539,0.395013 -1.05476,0.395013 -0.21572,0 -0.40202,-0.09105 -0.55891,-0.273147 -0.15688,-0.182098 -0.23532,-0.416024 -0.23532,-0.701778 0,-0.736796 0.32917,-1.529623 0.98753,-2.378483 0.65835,-0.851655 1.3125,-1.277484 1.96246,-1.277489 0.23532,5e-6 0.41042,0.134477 0.52528,0.403418 0.0364,0.08965 0.0939,0.134476 0.17229,0.134472 0.22412,4e-6 0.33618,0.08685 0.33619,0.260541 -1e-5,0.08685 -0.014,0.205914 -0.042,0.357192 -0.15128,0.826448 -0.22692,1.409162 -0.22692,1.748143 0,0.677967 0.12887,1.084185 0.38661,1.218657 0.12326,0.06724 0.18489,0.149881 0.1849,0.247934 -1e-5,0.08685 -0.0602,0.173694 -0.1807,0.26054 -0.12047,0.08965 -0.23673,0.134473 -0.34879,0.134473 -0.21572,0 -0.39361,-0.14848 -0.53368,-0.44544 -0.14008,-0.29696 -0.21012,-0.719988 -0.21012,-1.269085 m -0.25634,-2.365876 c -0.3698,4e-6 -0.79983,0.347391 -1.29009,1.042162 -0.49027,0.691976 -0.7354,1.266285 -0.7354,1.72293 0,0.322174 0.10646,0.483261 0.31937,0.48326 0.30817,10e-7 0.7354,-0.310967 1.28169,-0.932903 0.5463,-0.621933 0.81944,-1.193441 0.81945,-1.714525 -1e-5,-0.400612 -0.13168,-0.60092 -0.39502,-0.600924"
       id="path3858"
       inkscape:connector-curvature="0" />
    <path
       d="m 137.99922,67.620889 c 0.3586,-0.652749 0.78723,-1.180834 1.2859,-1.584255 0.49866,-0.406214 0.9483,-0.609324 1.34892,-0.609328 0.22132,4e-6 0.40902,0.102259 0.56311,0.306765 0.15408,0.204514 0.23112,0.453849 0.23112,0.748004 0,0.871272 -0.32918,1.689312 -0.98753,2.454123 -0.65556,0.762011 -1.34893,1.143016 -2.08012,1.143016 -0.19891,0 -0.38241,-0.05323 -0.5505,-0.159686 -0.16529,-0.109258 -0.25774,-0.245132 -0.27735,-0.40762 -0.0112,-0.13167 -0.049,-0.229723 -0.11346,-0.294158 -0.12046,-0.120464 -0.1807,-0.249334 -0.1807,-0.386609 0,-0.254936 0.07,-0.799829 0.21012,-1.634681 l 0.43283,-2.512955 c 0.14848,-0.843249 0.25634,-1.364329 0.32357,-1.563243 0.07,-0.198901 0.14708,-0.331972 0.23113,-0.399216 0.084,-0.06723 0.1877,-0.100847 0.31097,-0.100854 0.1961,7e-6 0.29415,0.169498 0.29416,0.508474 -1e-5,0.32218 -0.10786,0.773223 -0.32358,1.35313 -0.20731,0.557505 -0.44684,1.603869 -0.71859,3.139093 m -0.10085,1.399354 c 0.14568,0.271748 0.32217,0.407621 0.52948,0.40762 0.31937,10e-7 0.65696,-0.13167 1.01275,-0.395013 0.35579,-0.266142 0.66255,-0.638743 0.9203,-1.117803 0.26053,-0.481857 0.3908,-0.888076 0.39081,-1.218657 -1e-5,-0.148477 -0.0266,-0.275945 -0.0798,-0.382406 -0.0532,-0.106454 -0.12046,-0.159682 -0.2017,-0.159686 -0.38942,4e-6 -0.86567,0.319376 -1.42877,0.958116 -0.56031,0.635946 -0.94131,1.271888 -1.14302,1.907829"
       id="path3860"
       inkscape:connector-curvature="0" />
    <path
       d="m 145.07163,68.482353 c -0.39221,0.526685 -0.78022,0.921698 -1.16403,1.185039 -0.38381,0.263342 -0.7354,0.395013 -1.05477,0.395013 -0.21571,0 -0.40201,-0.09105 -0.5589,-0.273147 -0.15688,-0.182098 -0.23532,-0.416024 -0.23532,-0.701778 0,-0.736796 0.32917,-1.529623 0.98753,-2.378483 0.65835,-0.851655 1.3125,-1.277484 1.96246,-1.277489 0.23532,5e-6 0.41041,0.134477 0.52528,0.403418 0.0364,0.08965 0.0939,0.134476 0.17229,0.134472 0.22412,4e-6 0.33618,0.08685 0.33618,0.260541 0,0.08685 -0.014,0.205914 -0.042,0.357192 -0.15128,0.826448 -0.22693,1.409162 -0.22692,1.748143 -1e-5,0.677967 0.12886,1.084185 0.38661,1.218657 0.12326,0.06724 0.18489,0.149881 0.1849,0.247934 -1e-5,0.08685 -0.0602,0.173694 -0.1807,0.26054 -0.12047,0.08965 -0.23673,0.134473 -0.34879,0.134473 -0.21572,0 -0.39361,-0.14848 -0.53369,-0.44544 -0.14008,-0.29696 -0.21011,-0.719988 -0.21011,-1.269085 m -0.25634,-2.365876 c -0.3698,4e-6 -0.79983,0.347391 -1.29009,1.042162 -0.49027,0.691976 -0.7354,1.266285 -0.7354,1.72293 0,0.322174 0.10646,0.483261 0.31937,0.48326 0.30817,10e-7 0.7354,-0.310967 1.28169,-0.932903 0.54629,-0.621933 0.81944,-1.193441 0.81945,-1.714525 -1e-5,-0.400612 -0.13168,-0.60092 -0.39502,-0.600924"
       id="path3862"
       inkscape:connector-curvature="0" />
    <path
       d="m 148.21912,67.91925 c -0.07,2e-6 -0.16669,-0.0112 -0.28995,-0.03362 -0.12327,-0.02241 -0.20732,-0.05043 -0.25214,-0.08405 -0.0364,-0.299759 0.0336,-0.862862 0.21011,-1.689311 0.14288,-0.666755 0.21432,-1.133206 0.21432,-1.399355 0,-0.375396 0.0686,-0.628933 0.20591,-0.76061 0.13727,-0.131665 0.25214,-0.1975 0.34459,-0.197506 0.07,6e-6 0.14147,0.02942 0.21431,0.08825 0.0728,0.05884 0.10926,0.124674 0.10926,0.197507 0,0.06164 -0.15408,0.771821 -0.46225,2.130549 -0.12887,0.56871 -0.1961,1.004344 -0.20171,1.306905 -0.006,0.196108 -0.0364,0.343187 -0.0924,0.441238 m 0,1.248073 c 0,0.27735 -0.07,0.473455 -0.21011,0.588317 -0.13727,0.114862 -0.25634,0.172293 -0.35719,0.172293 -0.20731,0 -0.31097,-0.135873 -0.31097,-0.40762 0,-0.106457 0.0504,-0.232525 0.15128,-0.378204 0.10086,-0.148479 0.20451,-0.222719 0.31097,-0.22272 0.07,10e-7 0.15688,0.03082 0.26054,0.09245 0.10646,0.06163 0.15828,0.113462 0.15548,0.155484"
       id="path3864"
       inkscape:connector-curvature="0" />
  </g>
</svg>
